<?xml version="1.0" encoding="utf-8"?>
<!-- Generator: Adobe Illustrator 18.0.0, SVG Export Plug-In . SVG Version: 6.00 Build 0)  -->
<!DOCTYPE svg PUBLIC "-//W3C//DTD SVG 1.1//EN" "http://www.w3.org/Graphics/SVG/1.1/DTD/svg11.dtd">
<svg version="1.1" id="Layer_2_xA0_Image_1_"
	 xmlns="http://www.w3.org/2000/svg" xmlns:xlink="http://www.w3.org/1999/xlink" x="0px" y="0px" viewBox="0 0 4141.4 3142.8"
	 enable-background="new 0 0 4141.4 3142.8" xml:space="preserve">
<g>
	<path d="M662.9,0c0,17.8,0,35.7,0,50.5c20.8,11.9,38.6,20.8,56.5,32.7c5.9,0,17.8,3,29.7,3c0,38.6,5.9,74.3-5.9,113
		c3,5.9,8.9,11.9,14.9,20.8c-5.9,38.6-5.9,80.3-14.9,118.9c0,5.9,0,8.9,0,14.9c0,38.6-5.9,74.3-14.9,110v3c-3,38.6-3,74.3-8.9,113
		c-5.9,44.6-3,86.2-5.9,127.8c0,17.8-8.9,35.7-3,56.5c3,17.8,0,35.7-3,53.5c-11.9,107-8.9,214-5.9,324c0,74.3,3,145.7,8.9,220
		c0,20.8,11.9,41.6,0,62.4c-3,3,3,11.9,5.9,20.8c-8.9,8.9-14.9,17.8-23.8,26.8c-23.8-8.9-50.5,11.9-68.4-11.9
		c-32.7-5.9-59.4,0-83.2,23.8c-38.6-8.9-47.6-38.6-56.5-68.4c-5.9-20.8-11.9-35.7-29.7-47.6c-14.9-11.9-26.8-29.7-32.7-47.6
		c-5.9-14.9-14.9-23.8-20.8-38.6c-5.9-11.9-11.9-23.8-20.8-38.6c-32.7,38.6-62.4,77.3-95.1,115.9c-8.9,41.6-44.6,65.4-62.4,101.1
		c0,8.9,3,17.8,0,23.8c-3,11.9-14.9,8.9-23.8,11.9c-14.9,3-26.8,8.9-38.6,11.9c-26.8-5.9-50.5-11.9-77.3-17.8
		c-5.9-8.9-14.9-17.8-23.8-26.8c5.9-8.9,11.9-17.8,14.9-23.8c-3-23.8-8.9-47.6-11.9-71.3c-3-20.8-5.9-41.6-5.9-65.4
		c-3-20.8-3-44.6-5.9-65.4c-5.9-35.7-3-71.3-11.9-107c0-3,0-5.9,0-11.9c-5.9-44.6-8.9-95.1-11.9-142.7c-3-23.8-5.9-47.6-5.9-74.3
		c-3-23.8-3-47.6-5.9-71.3c-5.9-41.6,0-83.2-3-124.8c0-5.9,5.9-17.8-5.9-20.8c0-53.5,0-104,0-157.5c3-5.9,5.9-11.9,5.9-17.8
		c0-32.7,0-65.4,0-101.1c0-11.9,5.9-26.8,3-35.7c-8.9-38.6,0-80.3,11.9-118.9c5.9-26.8,8.9-53.5,8.9-80.3c0-11.9,0-23.8,0-35.7
		c0-17.8,8.9-35.7,23.8-41.6c32.7-11.9,65.4-17.8,98.1,0c0,5.9,0,11.9,0,17.8c-5.9,8.9-8.9,11.9-11.9,14.9
		c3,29.7,8.9,56.5,11.9,83.2c3,44.6,3,89.2,5.9,133.8c5.9,110-3,217,5.9,327c5.9,74.3,0,148.6,0,220c0,26.8-3,50.5,3,74.3
		c5.9,26.8,5.9,50.5,5.9,74.3c0,41.6,3,83.2,14.9,121.9c5.9,17.8,14.9,38.6,0,56.5c-3,3,0,5.9,0,11.9c3,11.9,5.9,23.8,8.9,38.6
		c11.9-8.9,20.8-14.9,29.7-29.7c14.9-32.7,35.7-62.4,56.5-92.1c20.8-26.8,44.6-53.5,68.4-80.3c8.9,3,20.8,3,32.7,5.9
		c8.9-3,14.9-5.9,23.8-11.9c8.9,5.9,20.8,11.9,23.8,14.9c20.8,5.9,35.7,8.9,50.5,11.9c11.9,3,20.8,5.9,20.8,17.8
		s-8.9,17.8-20.8,17.8c-3,0-3,3-5.9,3c20.8,47.6,32.7,98.1,62.4,145.7c0-20.8,3-35.7,0-50.5c-5.9-14.9,0-26.8,3-35.7
		c8.9-32.7,14.9-65.4,11.9-101.1l0,0c3,0,8.9,0,14.9,3c0,20.8,0,38.6,0,59.4c5.9-8.9,5.9-14.9,5.9-23.8c-3-44.6-5.9-86.2-5.9-130.8
		c0-26.8-8.9-53.5,0-80.3c0-3,0-5.9-3-8.9c-8.9-20.8-5.9-38.6-3-59.4c0-3,3-8.9,3-8.9c-14.9-23.8,0-47.6-5.9-71.3
		c-3-23.8-3-50.5,0-74.3c5.9-41.6,5.9-83.2,5.9-121.9c0-8.9,3-17.8,0-23.8c-14.9-17.8,3-35.7-5.9-53.5c14.9-38.6,3-80.3,5.9-118.9
		c0-8.9-3-20.8,3-26.8c5.9-11.9,3-17.8,0-29.7c-5.9-26.8-5.9-53.5-8.9-77.3c8.9,0,17.8-3,20.8-3c5.9-26.8,11.9-50.5,17.8-74.3
		c3-17.8,8.9-35.7,8.9-56.5c0-35.7-3-71.3,8.9-104C636.1,0,648,0,662.9,0z M220,1299c0-3,3-3,3-5.9C222.9,1296,222.9,1299,220,1299
		c-3,3-5.9,5.9-5.9,5.9c-11.9,5.9-20.8,14.9-20.8,29.7c-3,3-3,5.9-5.9,11.9c0,0,3,0,3,3c0-3,0-8.9,3-11.9
		c11.9-5.9,20.8-14.9,20.8-29.7C217,1304.9,220,1301.9,220,1299z M597.5,255.6C597.5,252.7,597.5,252.7,597.5,255.6c-3-3-3,0-3,0
		S594.5,255.6,597.5,255.6L597.5,255.6z"/>
	<path d="M1334.6,2150c3,3,32.7,41.6,35.7,41.6c3,0,3,3,5.9,3c3,0,3,3,8.9,8.9c3,35.7,3,77.3,5.9,118.9c5.9,38.6,3,80.3,11.9,118.9
		c3,8.9,3,17.8,0,23.8c-8.9,50.5,3,101.1,0,151.6c0,20.8,3,44.6,5.9,65.4c3,20.8,3,44.6,5.9,65.4c3,38.6,17.8,77.3,5.9,118.9
		c-3,8.9,0,23.8,3,32.7c3,11.9,5.9,20.8,14.9,38.6c0,8.9,3,23.8-11.9,38.6c-5.9,5.9-8.9,14.9-3,26.8c3,5.9-3,11.9-3,20.8
		c3,3,5.9,8.9,11.9,11.9c0,3,0,5.9,0,5.9c-5.9,8.9-8.9,20.8-14.9,29.7c-5.9,8.9-11.9,17.8-23.8,23.8c-14.9,5.9-23.8,20.8-35.7,32.7
		c-14.9,0-14.9-14.9-17.8-26.8c-29.7,0-44.6-20.8-56.5-44.6c-3-5.9-5.9-17.8-3-23.8c11.9-29.7,0-59.4,5.9-86.2
		c-8.9-5.9-14.9-11.9-20.8-14.9c0-3,0-5.9,0-8.9c8.9-17.8,14.9-29.7,8.9-53.5c-8.9-26.8-8.9-56.5-8.9-83.2c0-32.7-3-65.4,0-101.1
		c3-62.4-11.9-124.8-8.9-187.3c-11.9-32.7-8.9-65.4,0-98.1c3-8.9,0-17.8,0-32.7c-41.6,3-80.3-5.9-121.9,5.9c-3,0-5.9,0-5.9,0
		c-53.5,3-104,5.9-157.5,5.9c-23.8,0-50.5,0-77.3,0c0,8.9-3,17.8-3,23.8c0,59.4-3,121.9,0,181.3c5.9,77.3,5.9,154.6,5.9,228.9
		c14.9,35.7,3,77.3,11.9,115.9c5.9,20.8-3,44.6-5.9,65.4c0,8.9-3,14.9-5.9,23.8c-5.9,14.9-8.9,32.7-17.8,44.6
		c-11.9,14.9-32.7,20.8-50.5,29.7c-8.9,5.9-20.8,5.9-35.7,5.9c-5.9-11.9-11.9-20.8-14.9-32.7c-8.9-29.7-17.8-59.4-14.9-89.2
		c3-38.6,0-77.3,0-118.9c0-92.1,11.9-184.3,5.9-276.4c0-11.9,0-23.8,0-35.7c-5.9-11.9-11.9-17.8-11.9-47.6c-3-47.6-3-92.1,0-139.7
		c0-14.9,5.9-29.7,8.9-41.6c-11.9-8.9-26.8-14.9-29.7-32.7c11.9-17.8,23.8-38.6,38.6-56.5c38.6-44.6,53.5-101.1,80.3-148.6
		c8.9-17.8,17.8-38.6,23.8-56.5c23.8-50.5,44.6-101.1,68.4-148.6c14.9-32.7,29.7-62.4,44.6-95.1c5.9-14.9,11.9-26.8,14.9-44.6
		c8.9,0,17.8,3,29.7,3c5.9-14.9,20.8-8.9,35.7-8.9c14.9,20.8,26.8,44.6,44.6,68.4c23.8,3,35.7,20.8,50.5,38.6
		c5.9,8.9,11.9,17.8,17.8,26.8c8.9,14.9,20.8,29.7,41.6,35.7c8.9,11.9,14.9,23.8,20.8,32.7c-3,5.9-3,8.9-8.9,14.9
		c5.9,8.9,14.9,20.8,23.8,26.8c11.9,5.9,14.9,11.9,20.8,20.8c20.8,38.6,44.6,77.3,68.4,113c0,11.9,0,23.8,0,38.6
		C1346.5,2153,1340.6,2150,1334.6,2150c-14.9-35.7-38.6-65.4-62.4-98.1c-3,3-5.9,5.9-5.9,8.9c14.9,23.8,32.7,50.5,47.6,77.3
		C1316.8,2144,1322.8,2150,1334.6,2150z M1218.7,1971.6c-3-3-5.9-5.9-5.9-5.9c-3-5.9-5.9-8.9-5.9-14.9c-3-3-5.9-5.9-5.9-5.9
		c-3-3-5.9-5.9-5.9-5.9c-3-3-5.9-5.9-5.9-5.9c0-11.9-3-17.8-14.9-20.8c-3-3-5.9-5.9-5.9-5.9c-3-5.9-5.9-8.9-5.9-14.9
		c-3-3-5.9-5.9-5.9-5.9c-11.9-11.9-11.9-17.8-14.9-20.8c-3-3-5.9-5.9-5.9-5.9c-5.9-26.8-23.8-38.6-47.6-44.6
		c14.9,14.9,32.7,29.7,47.6,44.6c3,3,5.9,5.9,5.9,5.9c3,5.9,5.9,8.9,5.9,14.9c3,3,5.9,5.9,5.9,5.9c3,5.9,5.9,8.9,5.9,14.9
		c3,3,5.9,5.9,5.9,5.9c0,11.9,3,17.8,14.9,20.8c3,3,5.9,5.9,5.9,5.9c3,3,5.9,5.9,5.9,5.9c3,3,5.9,5.9,5.9,5.9
		c3,5.9,5.9,8.9,5.9,14.9C1215.7,1965.7,1215.7,1968.7,1218.7,1971.6c3,0,3,3,5.9,3C1221.7,1971.6,1221.7,1971.6,1218.7,1971.6z
		 M1248.4,2013.2c-3-3-5.9-5.9-5.9-5.9c0-3,0-8.9-3-11.9c-3,0-3,0-5.9,3c3,3,3,5.9,5.9,11.9
		C1242.5,2007.3,1245.5,2010.3,1248.4,2013.2c3,5.9,5.9,8.9,5.9,14.9c3,0,3,3,5.9,3c-3,0-3-3-5.9-3
		C1251.4,2022.2,1251.4,2019.2,1248.4,2013.2z M1203.9,2028.1c3,0,3,3,5.9,3C1209.8,2031.1,1206.8,2028.1,1203.9,2028.1
		c-3-5.9-5.9-8.9-5.9-14.9c-3-5.9-5.9-8.9-5.9-14.9c-3,0-3-3-5.9-3c3,0,3,3,5.9,3c3,5.9,5.9,8.9,5.9,14.9
		C1200.9,2019.2,1203.9,2022.2,1203.9,2028.1z M1218.7,2048.9c-3,0-3-3-5.9-3C1215.7,2045.9,1218.7,2048.9,1218.7,2048.9
		c3,5.9,5.9,8.9,5.9,14.9c3,0,3,3,5.9,3c-3,0-3-3-5.9-3C1224.7,2057.8,1221.7,2054.9,1218.7,2048.9z M1177.1,1971.6c-3,0-3-3-5.9-3
		C1174.1,1968.7,1174.1,1968.7,1177.1,1971.6c0,3,0,8.9,3,11.9c3,0,3,0,5.9-3C1180.1,1977.6,1180.1,1974.6,1177.1,1971.6z
		 M942.3,2242.1c14.9,0,32.7,3,47.6,0c26.8-8.9,50.5-5.9,77.3-5.9c32.7,0,65.4,0,95.1,0c26.8,0,50.5-5.9,77.3-8.9
		c-5.9-11.9-5.9-23.8-11.9-32.7c-14.9-26.8-23.8-59.4-47.6-80.3c-26.8-23.8-47.6-50.5-59.4-86.2c-8.9-20.8-23.8-41.6-38.6-68.4
		c-17.8,29.7-35.7,53.5-50.5,80.3C992.8,2102.4,969,2170.8,942.3,2242.1z M1287.1,2155.9c-3,8.9-5.9,11.9-11.9,20.8
		c8.9,0,14.9,0,20.8,0C1293,2167.8,1290.1,2164.8,1287.1,2155.9z M1313.8,2203.5h3c0-8.9,0-14.9,0-23.8h-3
		C1313.8,2188.6,1313.8,2194.6,1313.8,2203.5z M1159.3,1938.9C1159.3,1938.9,1159.3,1936,1159.3,1938.9L1159.3,1938.9L1159.3,1938.9
		z M1266.3,2123.2C1266.3,2123.2,1263.3,2123.2,1266.3,2123.2L1266.3,2123.2L1266.3,2123.2z M1275.2,2138.1
		C1275.2,2138.1,1272.2,2138.1,1275.2,2138.1c-3-3-3,0-3,0C1272.2,2138.1,1272.2,2138.1,1275.2,2138.1
		C1272.2,2138.1,1275.2,2138.1,1275.2,2138.1z M1239.5,2081.6C1239.5,2081.6,1239.5,2078.6,1239.5,2081.6
		C1236.6,2081.6,1236.6,2081.6,1239.5,2081.6C1236.6,2081.6,1239.5,2081.6,1239.5,2081.6z M1165.2,1950.8L1165.2,1950.8
		C1165.2,1953.8,1165.2,1953.8,1165.2,1950.8C1168.2,1950.8,1165.2,1950.8,1165.2,1950.8z"/>
	<path d="M3923.8,707.4c-17.8,3-29.7,3-44.6,5.9c-8.9,0-17.8,3-26.8,3c-44.6,0-89.2,0-136.7,0c-44.6,0-92.1,3-136.7,5.9
		c0,11.9,5.9,23.8,3,29.7c-8.9,20.8-5.9,38.6-5.9,59.4c0,47.6,0,98.1,0,145.7c0,23.8-5.9,47.6,0,71.3c3,23.8,0,50.5,0,77.3
		c-8.9,3-17.8,8.9-29.7,14.9c14.9,98.1,5.9,199.2,8.9,300.2c-5.9,8.9-11.9,20.8-32.7,20.8c-5.9-8.9-14.9-17.8-26.8-29.7
		c-17.8,3-29.7,23.8-53.5,11.9c-5.9-17.8-20.8-32.7-20.8-53.5c0-11.9-5.9-23.8-3-35.7c8.9-17.8,5.9-38.6,5.9-56.5
		c0-142.7,0-282.4,0-425.1c-8.9-5.9-20.8-11.9-29.7-17.8c5.9-14.9,11.9-26.8,14.9-38.6c-3-11.9-8.9-23.8-11.9-38.6
		c3-5.9,8.9-20.8,14.9-23.8c23.8-11.9,17.8-32.7,17.8-53.5c0-5.9-5.9-11.9-5.9-14.9c11.9-23.8,3-50.5,5.9-74.3
		c3-17.8,5.9-38.6,11.9-59.4c-5.9-3-11.9-8.9-17.8-14.9c0-3,0-5.9,0-5.9c32.7-44.6,71.3-89.2,95.1-139.7c3-5.9,8.9-14.9,14.9-20.8
		c11.9-8.9,17.8-23.8,26.8-35.7c29.7-44.6,65.4-83.2,89.2-130.8c3-3,5.9-5.9,8.9-8.9c5.9-5.9,14.9-11.9,20.8-20.8
		c5.9-11.9,8.9-26.8,23.8-35.7c11.9-8.9,23.8-17.8,35.7-29.7c8.9,3,17.8,8.9,23.8,11.9c14.9-3,32.7-8.9,47.6-11.9
		c5.9,5.9,14.9,11.9,17.8,17.8c-3,17.8-5.9,32.7-5.9,44.6c26.8,53.5,68.4,95.1,104,139.7c11.9,14.9,20.8,29.7,26.8,50.5
		c5.9,23.8,20.8,44.6,32.7,65.4c3,3,5.9,5.9,5.9,8.9c17.8,38.6,47.6,68.4,71.3,107c-5.9,8.9-8.9,14.9-14.9,23.8
		c-5.9,11.9-11.9,23.8-11.9,35.7c-3,14.9-3,32.7-5.9,47.6c-3,17.8,3,35.7,3,56.5c0,11.9,3,20.8,3,32.7c0,26.8,0,53.5,0,83.2
		c0,14.9,3,29.7-5.9,44.6c-5.9,11.9,11.9,26.8,0,38.6c8.9,17.8,0,35.7,0,53.5c0,17.8-3,38.6,0,56.5c8.9,44.6,3,89.2,5.9,133.8
		c0,17.8,5.9,35.7,5.9,56.5c3,17.8,3,35.7,5.9,56.5c5.9,26.8,3,56.5,3,86.2c0,29.7,0,56.5,14.9,80.3c-5.9,17.8-8.9,35.7-26.8,47.6
		c-8.9-8.9-20.8-17.8-32.7-26.8c-14.9,3-32.7,5.9-47.6,8.9c-23.8-17.8-32.7-35.7-29.7-68.4c3-44.6-8.9-92.1-8.9-136.7
		c-3-41.6,3-86.2-3-127.8c-8.9-65.4-3-130.8-5.9-196.2c0-14.9-3-32.7,5.9-47.6c3-3,0-8.9,0-14.9c-3-23.8-8.9-47.6-5.9-68.4
		C3923.8,758,3923.8,737.2,3923.8,707.4z M3540.4,1022.5c-3,0-3-3-5.9-3C3534.4,1019.6,3537.4,1019.6,3540.4,1022.5c3,0,3,3,5.9,3
		C3543.3,1022.5,3540.4,1022.5,3540.4,1022.5z M3552.3,561.8c8.9,0,14.9,3,20.8,3c32.7,0,68.4-3,101.1-5.9
		c68.4-5.9,139.7-5.9,208.1-8.9c11.9,0,26.8,0,41.6,0c-8.9-26.8-23.8-41.6-35.7-59.4c-29.7-41.6-56.5-86.2-89.2-124.8
		c-11.9-14.9-23.8-32.7-17.8-50.5c-11.9-14.9-20.8-26.8-29.7-38.6c-8.9,11.9-17.8,23.8-26.8,35.7c-8.9,8.9-20.8,17.8-26.8,29.7
		c-29.7,44.6-62.4,89.2-92.1,133.8C3587.9,499.4,3573.1,529.1,3552.3,561.8z"/>
	<path d="M3088.4,1769.5c14.9-14.9,29.7-29.7,41.6-44.6c14.9-3,29.7-8.9,47.6-11.9c5.9,8.9,11.9,17.8,14.9,29.7
		c5.9-3,11.9-3,14.9-5.9c17.8,8.9,17.8,26.8,17.8,41.6c41.6,56.5,95.1,104,142.7,154.6c8.9,8.9,17.8,20.8,23.8,35.7
		c8.9,17.8,23.8,35.7,35.7,53.5c8.9,11.9,20.8,26.8,29.7,38.6c5.9,5.9,8.9,17.8,11.9,26.8c-8.9,5.9-14.9,11.9-20.8,14.9
		c0,8.9,5.9,17.8,3,23.8c-20.8,23.8-14.9,53.5-11.9,77.3c5.9,29.7,3,59.4,5.9,89.2c0,23.8-3,47.6,5.9,71.3c3,8.9,0,23.8-3,32.7
		c-8.9,17.8-8.9,29.7-3,50.5c5.9,29.7,5.9,62.4,8.9,95.1c0,29.7,3,56.5,0,86.2c-5.9,38.6-8.9,74.3-5.9,113
		c5.9,44.6,5.9,92.1,5.9,136.7c0,8.9,3,17.8,5.9,26.8c14.9,29.7,3,56.5-14.9,80.3c17.8,3,26.8,17.8,35.7,32.7
		c-8.9,23.8-20.8,47.6-26.8,65.4c-23.8,8.9-38.6,14.9-59.4,20.8c-20.8-3-20.8-32.7-41.6-38.6c0-11.9,0-20.8,0-29.7
		c0-35.7,0-71.3-11.9-107c0-3,0-5.9,0-11.9c-3-53.5-3-110-8.9-163.5c-5.9-68.4-8.9-133.8-5.9-202.1c5.9-71.3,5.9-142.7,5.9-217
		c0-14.9,5.9-29.7,8.9-47.6c-14.9,0-23.8,0-35.7,0c-89.2,0-178.3,0-267.5,0c-20.8,0-38.6,3-62.4,5.9c0,11.9,0,23.8,0,32.7
		c0,62.4,5.9,124.8-3,184.3c-5.9,56.5-3,113-5.9,169.4c0,26.8,5.9,56.5,8.9,80.3c-5.9,8.9-11.9,14.9-14.9,20.8
		c3,47.6,3,95.1,5.9,139.7c3,23.8,14.9,47.6,20.8,71.3c-5.9,17.8-11.9,32.7-20.8,53.5c-8.9,5.9-26.8,11.9-38.6,17.8
		c-14.9,5.9-26.8,14.9-41.6,20.8c-20.8-14.9-29.7-38.6-32.7-65.4c-5.9-44.6-3-92.1-14.9-136.7c-3-8.9,0-17.8,0-29.7
		c0-107,0-217,0-324c0-56.5,5.9-115.9,8.9-172.4c0-11.9-3-23.8-3-38.6c0-35.7,0-68.4,0-104c0-8.9,3-20.8-3-26.8
		c-8.9-14.9-3-26.8,3-38.6c8.9-14.9,8.9-26.8,3-44.6c-3-8.9-3-20.8,3-26.8c14.9-11.9,3-32.7,20.8-41.6c-3-3-3-8.9-5.9-14.9
		c5.9-3,11.9-3,14.9-3c14.9-23.8,26.8-47.6,41.6-65.4c26.8-32.7,47.6-68.4,71.3-104c14.9-23.8,29.7-44.6,47.6-65.4
		C3052.7,1772.5,3064.6,1760.6,3088.4,1769.5z M3323.2,2135.1c3,0,3,3,5.9,3C3326.2,2138.1,3326.2,2135.1,3323.2,2135.1
		c3-17.8-14.9-23.8-20.8-35.7c-11.9-23.8-23.8-50.5-41.6-74.3c-32.7-44.6-68.4-86.2-101.1-130.8c-5.9-5.9-11.9-11.9-20.8-20.8
		c-8.9,8.9-14.9,17.8-20.8,26.8c-23.8,23.8-47.6,44.6-68.4,68.4c-11.9,11.9-23.8,23.8-29.7,38.6c-5.9,11.9-11.9,20.8-20.8,32.7
		c-29.7,38.6-32.7,50.5-35.7,86.2c11.9,0,23.8-3,35.7-3c56.5,3,115.9-3,172.4,5.9C3222.2,2138.1,3272.7,2135.1,3323.2,2135.1z
		 M2886.3,2045.9c-3,0-3,0-5.9,0c0,5.9,3,8.9,3,14.9h3C2886.3,2054.9,2886.3,2048.9,2886.3,2045.9z M3023,2182.7
		C3023,2179.7,3020,2179.7,3023,2182.7c-3-3-3,0-3,0C3020,2182.7,3020,2182.7,3023,2182.7C3020,2182.7,3023,2182.7,3023,2182.7z"/>
	<path d="M2184.8,3074.4c-3-17.8-5.9-29.7-5.9-44.6c0-11.9,3-23.8,3-32.7c0-23.8,0-50.5,0-74.3c0-59.4,0-115.9,0-175.4
		c0-41.6,5.9-80.3,11.9-121.9c5.9-35.7,5.9-74.3-3-110c-3-8.9-3-17.8-3-26.8c0-113,0-222.9,0-335.9c0-38.6,5.9-80.3,5.9-118.9
		c0-8.9,0-20.8-3-26.8c-17.8-32.7-11.9-68.4-5.9-104c3-8.9,3-14.9,3-23.8c0-23.8,0-44.6,0-68.4c11.9-11.9,20.8-26.8,35.7-29.7
		c8.9-11.9,14.9-23.8,23.8-35.7c17.8,3,35.7,8.9,53.5,11.9c14.9,17.8,20.8,35.7,8.9,59.4c-5.9,8.9-3,20.8,5.9,29.7
		c17.8,23.8,20.8,50.5,14.9,77.3c-3,17.8,0,38.6,0,56.5c0,53.5,0,104,0,160.5c17.8,0,35.7,0,50.5,0c11.9,0,26.8,3,38.6,5.9
		c5.9,0,8.9,3,14.9,0c23.8-8.9,47.6,5.9,71.3-5.9c14.9-5.9,35.7,0,56.5,0c14.9,5.9,23.8,32.7,47.6,14.9c-5.9-23.8,11.9-50.5,3-77.3
		c11.9-23.8,5.9-50.5,5.9-77.3c0-38.6,3-74.3,14.9-110c3-8.9,0-20.8,0-32.7c0-17.8,0-35.7,14.9-50.5c-5.9-5.9-11.9-11.9-17.8-20.8
		c3-8.9,8.9-14.9,11.9-23.8c20.8-3,38.6-3,59.4-5.9c14.9-3,11.9-26.8,35.7-23.8c14.9,14.9,17.8,35.7,17.8,56.5c0,23.8,3,47.6,0,71.3
		c0,26.8,0,53.5,0,77.3c0,23.8,0,50.5,0,74.3c0,17.8-5.9,32.7-3,50.5c3,17.8-3,38.6-3,56.5c0,17.8-3,35.7,0,53.5
		c14.9,65.4,8.9,133.8,5.9,199.2c-8.9,118.9-3,237.8-5.9,356.7c0,50.5,0,101.1,8.9,151.6c5.9,32.7,5.9,65.4,5.9,98.1
		c0,23.8,5.9,50.5-11.9,71.3c5.9,20.8-5.9,35.7-17.8,47.6c-20.8,3-38.6,5.9-59.4,11.9c-8.9-11.9-17.8-23.8-23.8-32.7
		c-17.8-107-3-208.1-11.9-312.1c-5.9-92.1-3-184.3-5.9-273.5c0-23.8-5.9-47.6-8.9-71.3c-5.9-5.9-11.9-8.9-20.8-17.8
		c17.8-14.9,32.7-26.8,35.7-50.5c5.9,3,11.9,3,14.9,5.9c0-3,3-5.9,3-5.9c-11.9-5.9-14.9-20.8-14.9-35.7c-32.7,3-65.4-8.9-95.1,11.9
		c-5.9,3-14.9,3-20.8,3c-32.7,0-65.4,3-95.1-5.9c-17.8-3-35.7,0-53.5,3c5.9,3,11.9,3,14.9,5.9c5.9,3,11.9,8.9,14.9,14.9
		c-8.9,8.9-44.6,11.9-65.4,5.9c-3,5.9-3,11.9-8.9,17.8c-3,3-5.9,5.9-14.9,14.9c11.9-3,17.8-3,26.8-5.9
		c-5.9,11.9-11.9,17.8-17.8,26.8c5.9,8.9,11.9,20.8,20.8,35.7c-8.9,0-14.9,0-23.8,0c-3,47.6-5.9,95.1-5.9,142.7
		c-3,68.4-5.9,133.8-8.9,202.1c5.9,8.9,11.9,14.9,14.9,20.8c0,17.8,5.9,35.7-8.9,44.6c0,11.9,3,17.8,3,26.8s-3,17.8,3,23.8
		c17.8,32.7,8.9,62.4,0,95.1c-3,17.8-3,38.6-3,56.5c0,17.8-3,32.7-14.9,44.6c-29.7,11.9-32.7-11.9-38.6-29.7
		c-14.9-5.9-23.8-5.9-35.7,3C2208.6,3089.3,2196.7,3086.3,2184.8,3074.4z M2208.6,3035.8C2205.6,3035.8,2205.6,3035.8,2208.6,3035.8
		C2205.6,3035.8,2208.6,3035.8,2208.6,3035.8L2208.6,3035.8z M2229.4,3044.7C2229.4,3044.7,2229.4,3041.7,2229.4,3044.7
		c-3-3-3,0-3,0H2229.4L2229.4,3044.7z M2684.1,3074.4L2684.1,3074.4L2684.1,3074.4L2684.1,3074.4z"/>
	<path d="M3281.8,86.2c-3,8.9-8.9,17.8-11.9,29.7c3,3,8.9,5.9,11.9,8.9c14.9,14.9,20.8,23.8,11.9,41.6c-5.9,11.9-8.9,26.8-11.9,38.6
		c-3,17.8-14.9,32.7-26.8,47.6c-11.9,14.9-23.8,29.7-35.7,44.6c-41.6,56.5-83.2,110-124.8,166.5c-26.8,38.6-50.5,77.3-77.3,115.9
		c-5.9,8.9-11.9,20.8-5.9,29.7c17.8,32.7,20.8,71.3,32.7,107c17.8,47.6,29.7,95.1,44.6,142.7c11.9,41.6,20.8,80.3,26.8,121.9
		c0,5.9,3,8.9,3,11.9c23.8,44.6,32.7,95.1,44.6,145.7c17.8,80.3,47.6,157.5,86.2,231.9c5.9,8.9,8.9,17.8,14.9,29.7c0,0,0,3,0,8.9
		c-5.9,5.9-11.9,14.9-17.8,20.8c-17.8,0-23.8-8.9-26.8-17.8c-5.9,5.9-14.9,11.9-20.8,17.8c-20.8-11.9-44.6-23.8-65.4-38.6
		c-8.9,3-17.8,8.9-29.7,11.9c-26.8-14.9-32.7-38.6-35.7-62.4c-11.9-56.5-23.8-110-41.6-166.5c-17.8-53.5-35.7-107-53.5-157.5
		c-11.9-32.7-17.8-68.4-23.8-104c-5.9-26.8-8.9-53.5-14.9-83.2c0-5.9-3-11.9-5.9-14.9c-8.9-14.9-14.9-32.7-14.9-50.5
		c0-17.8-5.9-32.7-11.9-50.5c-29.7,5.9-56.5,8.9-86.2-3c-3,5.9-8.9,11.9-5.9,14.9c8.9,11.9-3,23.8-3,32.7c0,32.7-5.9,65.4-11.9,98.1
		c-5.9,20.8-3,41.6,0,62.4c5.9,44.6,8.9,53.5,0,98.1c-3,8.9,0,17.8,0,23.8c0,41.6,0,80.3,0,121.9c0,26.8-8.9,56.5-5.9,83.2
		c5.9,41.6,3,83.2,11.9,121.9c5.9,20.8,0,38.6-17.8,56.5c-26.8-3-56.5-8.9-83.2,8.9c-8.9-8.9-17.8-17.8-26.8-26.8
		c0-38.6,0-74.3,0-113c0-44.6,0-89.2,0-130.8c0-26.8,3-53.5,8.9-80.3c3-14.9,3-29.7,5.9-44.6c14.9-151.6,3-306.2,8.9-457.8
		c0-17.8,5.9-35.7,5.9-50.5c3-14.9-3-32.7,5.9-47.6c3-3,0-5.9,0-11.9c3-50.5,5.9-104,8.9-154.6c0-8.9,3-20.8,3-29.7
		c0-17.8,5.9-32.7,3-50.5c-11.9-44.6,5.9-83.2,17.8-124.8c0-5.9,3-11.9,5.9-17.8c3-8.9,8.9-17.8,14.9-23.8
		c11.9-11.9,26.8-5.9,41.6-11.9c11.9-5.9,8.9,20.8,20.8,8.9c3,17.8,20.8,26.8,38.6,38.6c11.9,26.8-3,56.5,0,86.2
		c0,11.9-5.9,23.8-5.9,38.6c0,29.7-5.9,59.4-11.9,89.2c0,3,0,5.9-3,8.9c-3,32.7,0,65.4-8.9,98.1c-8.9,38.6,0,77.3-11.9,115.9
		c-5.9,17.8,0,38.6,0,56.5c32.7-14.9,32.7-14.9,65.4-5.9c26.8-35.7,56.5-68.4,80.3-104c35.7-53.5,68.4-110,107-166.5
		c32.7-47.6,62.4-95.1,98.1-142.7c20.8-29.7,44.6-59.4,68.4-89.2C3246.1,68.4,3263.9,68.4,3281.8,86.2z"/>
	<path d="M1545.7,1790.3c11.9-17.8,26.8-11.9,41.6-11.9c0,5.9,3,11.9,3,17.8c3,0,3,0,5.9,0c14.9-8.9,26.8-11.9,44.6-8.9
		c89.2,0,181.3,0,270.5,0c35.7,0,71.3,5.9,110,5.9c8.9,0,20.8,5.9,23.8,11.9c20.8,23.8,41.6,47.6,59.4,74.3
		c8.9,11.9,5.9,20.8-5.9,35.7c-26.8,3-56.5,5.9-86.2,5.9c-50.5,0-101.1,0-154.6,0c-38.6,0-80.3,5.9-118.9,11.9
		c17.8,3,35.7,8.9,53.5,11.9c0,3,0,8.9,0,8.9c-8.9,5.9-17.8,8.9-23.8,14.9c-11.9,11.9-14.9,35.7-38.6,38.6c-3,0,5.9,8.9-3,11.9
		c-3,0,0,11.9,0,17.8c0,3-8.9,3-8.9,11.9c-5.9,38.6-14.9,77.3-8.9,118.9c-8.9,11.9-20.8,23.8-11.9,41.6c3,5.9-3,17.8-5.9,26.8
		c-3,5.9-3,11.9,0,20.8c3,11.9,0,23.8,0,32.7c0,17.8-3,35.7,0,53.5c3,26.8,8.9,56.5,11.9,83.2c0,3-5.9,8.9-5.9,11.9
		c-3,23.8-5.9,50.5-3,74.3c3,23.8,0,50.5,11.9,77.3c5.9,8.9,5.9,23.8,3,35.7c-8.9,32.7-8.9,65.4,0,98.1c0,3,0,5.9,0,11.9
		c3,50.5,3,74.3,8.9,124.8c3,29.7,0,62.4,8.9,95.1c11.9,0,20.8,0,32.7,0c71.3,0,142.7,0,214,0c23.8,0,50.5,3,74.3,8.9
		c8.9,3,17.8,11.9,26.8,17.8c-11.9,23.8-23.8,44.6-32.7,68.4c3,3,8.9,5.9,14.9,11.9c-3,5.9-5.9,14.9-8.9,23.8
		c-59.4,0-115.9,0-178.3,0c5.9,5.9,11.9,8.9,14.9,11.9c-5.9,23.8-26.8,11.9-38.6,17.8c-8.9,17.8-29.7,17.8-47.6,26.8
		c-20.8-5.9-41.6-8.9-65.4-8.9c-26.8,3-56.5-5.9-89.2-8.9c-3-5.9-11.9-17.8-20.8-29.7c-29.7,0-47.6-17.8-59.4-44.6
		c-3-5.9-5.9-11.9-5.9-14.9c0-32.7,0-65.4,0-95.1c11.9-14.9-3-35.7,5.9-53.5c5.9-14.9,3-35.7-5.9-50.5c-3-5.9,0-14.9,0-20.8
		c0-23.8,0-47.6-5.9-74.3c-14.9-71.3-20.8-115.9-14.9-187.3c8.9-98.1,5.9-196.2,3-294.3c0-59.4-5.9-118.9-5.9-175.4
		c0-14.9,5.9-32.7,3-47.6c-5.9-17.8,5.9-29.7,8.9-47.6c3-8.9,3-17.8,3-26.8C1545.7,1897.3,1545.7,1843.8,1545.7,1790.3z"/>
	<path d="M240.8,2991.2c-3-32.7,0-65.4,3-101.1c3-17.8-3-35.7-3-53.5c-17.8-14.9-17.8-14.9,0-29.7c-3-3-5.9-5.9-11.9-8.9
		c0-56.5,0-115.9,0-172.4c0-20.8,5.9-44.6,8.9-68.4c0,0,3-3,5.9-3c-3-47.6,5.9-95.1,11.9-139.7c-62.4-71.3-121.9-142.7-187.3-220
		c-11.9-3-23.8-8.9-32.7-26.8c-8.9-17.8-20.8-29.7-35.7-47.6c5.9-5.9,11.9-14.9,17.8-23.8c0,0,0-3,0-5.9
		c-8.9-14.9-14.9-32.7-5.9-50.5c-11.9-23.8,5.9-47.6,3-71.3c-3-23.8-3-50.5,0-74.3c3-35.7,5.9-71.3,5.9-110
		c5.9-8.9,11.9-17.8,17.8-26.8c8.9-3,17.8-3,26.8-5.9c17.8,5.9,32.7,14.9,47.6,14.9c20.8,0,35.7,8.9,50.5,20.8
		c5.9,23.8-17.8,20.8-26.8,35.7c17.8,29.7,14.9,59.4,8.9,92.1c-3,8.9-3,17.8-3,26.8c-3,26.8-8.9,53.5-11.9,80.3
		c-3,17.8-3,38.6-3,59.4c20.8,0,35.7,14.9,50.5,26.8c32.7,29.7,56.5,68.4,83.2,101.1c8.9,8.9,14.9,17.8,20.8,26.8
		c3,5.9,11.9,8.9,11.9,11.9c8.9,35.7,44.6,50.5,65.4,83.2c56.5-86.2,104-172.4,160.5-255.6c-8.9-5.9-14.9-11.9-20.8-17.8
		c3-35.7,0-68.4,3-104c5.9-41.6,17.8-83.2,5.9-124.8c8.9-14.9-14.9-17.8-8.9-32.7c11.9-20.8,29.7-29.7,50.5-29.7
		c32.7,0,65.4,0,101.1,0c11.9,14.9,26.8,32.7,38.6,47.6c-5.9,32.7-5.9,65.4-14.9,98.1c-8.9,38.6-5.9,74.3-5.9,113
		c0,20.8-14.9,35.7-20.8,53.5c8.9,5.9,26.8-3,32.7,14.9c-11.9,32.7-35.7,62.4-59.4,92.1c-26.8,35.7-53.5,71.3-83.2,104
		c-17.8,20.8-38.6,38.6-59.4,59.4c-5.9,5.9-11.9,11.9-14.9,17.8c-14.9,26.8-26.8,53.5-41.6,83.2c-5.9,11.9-11.9,23.8-11.9,35.7
		c0,38.6-20.8,77.3-3,118.9c3,5.9,3,11.9,0,17.8c-8.9,14.9-5.9,32.7-5.9,47.6c0,83.2,0,169.4,0,252.7c0,20.8,3,44.6,5.9,65.4
		c3,26.8-8.9,50.5-14.9,74.3c-3,8.9-11.9,17.8-26.8,14.9c-35.7,0-71.3,3-107,5.9c-5.9-11.9-8.9-17.8-14.9-29.7c-8.9,0-23.8,0-38.6-3
		c3-26.8-8.9-53.5,11.9-80.3C231.9,2985.2,237.8,2988.2,240.8,2991.2c0,11.9,0,23.8,3,32.7C246.7,3012,255.6,3000.1,240.8,2991.2z"
		/>
	<path d="M3917.7,2598.8c-5.9,5.9-8.9,11.9-14.9,17.8c0,32.7,0,65.4,0,98.1c5.9,3,11.9,5.9,17.8,5.9c3,14.9,5.9,29.7,8.9,47.6
		c-3,5.9-5.9,11.9-11.9,20.8c-5.9,0-8.9-3-17.8-5.9c3,23.8,5.9,44.6,8.9,65.4c3,23.8,8.9,50.5,11.9,74.3c0,3,0,8.9,0,11.9
		c14.9,29.7,0,50.5-14.9,74.3c5.9,11.9,8.9,23.8,14.9,35.7c-14.9,23.8-38.6,26.8-59.4,29.7c-14.9,3-23.8,8.9-32.7,14.9
		c-14.9,0-29.7-3-41.6-3c0,0,0-3,0-8.9c-8.9,3-17.8,3-29.7,5.9c-3-47.6-8.9-92.1-11.9-139.7c0-3-5.9-8.9-11.9-14.9
		c0-26.8,0-50.5,5.9-77.3c5.9-26.8,0-53.5,0-83.2c0-20.8,0-41.6,0-65.4c3-44.6,5.9-92.1,11.9-136.7c3-29.7,5.9-62.4-3-95.1
		c0-3,0-5.9-3-8.9c-3-35.7-5.9-71.3-5.9-113c-68.4-62.4-136.7-127.8-199.2-202.1c3-17.8,0-35.7,0-53.5c0-20.8,0-41.6,0-65.4
		c0-20.8,3-41.6,0-59.4c-3-20.8,0-44.6,0-65.4c0-20.8,0-41.6,0-65.4c0-20.8,5.9-41.6,14.9-59.4c32.7-8.9,65.4-14.9,98.1,0
		c17.8,29.7,8.9,65.4,11.9,98.1c-5.9,3-8.9,5.9-14.9,11.9c8.9,62.4,14.9,127.8,23.8,193.2c11.9,11.9,23.8,23.8,35.7,32.7
		c41.6,41.6,80.3,89.2,130.8,124.8c3,3,5.9,8.9,8.9,11.9c20.8,5.9,32.7-5.9,41.6-17.8c23.8-32.7,50.5-65.4,80.3-95.1
		c11.9-11.9,20.8-26.8,29.7-35.7c3-17.8,5.9-29.7,8.9-44.6c3-11.9,3-23.8,0-35.7c-11.9-50.5-14.9-101.1-14.9-154.6
		c0-8.9,0-17.8-3-23.8c-5.9-26.8-5.9-26.8,11.9-44.6c41.6-5.9,86.2-11.9,130.8-17.8c0,11.9,3,20.8,3,29.7c0,77.3,0,151.6,0,228.9
		c0,20.8-5.9,38.6-8.9,62.4c8.9,8.9,14.9,23.8,11.9,32.7c-32.7,41.6-59.4,77.3-86.2,113c-17.8,20.8-35.7,41.6-53.5,62.4
		c-20.8,23.8-44.6,47.6-65.4,74.3c-11.9,14.9-14.9,29.7-14.9,50.5C3917.7,2488.8,3917.7,2542.3,3917.7,2598.8z M3766.1,2227.3
		c3,0,3,3,5.9,3C3769.1,2230.2,3769.1,2227.3,3766.1,2227.3c-3-3-5.9-5.9-5.9-5.9c-3-3-5.9-5.9-5.9-5.9c-3-3-5.9-5.9-5.9-5.9
		c-3-3-5.9-5.9-5.9-5.9c-3,0-3-3-5.9-3c3,0,3,3,5.9,3c3,3,5.9,5.9,5.9,5.9c3,3,5.9,5.9,5.9,5.9c3,3,5.9,5.9,5.9,5.9
		S3763.2,2224.3,3766.1,2227.3z M3567,2129.2C3567,2129.2,3567,2132.1,3567,2129.2c3,3,5.9,3,8.9,3v-3
		C3572.9,2129.2,3569.9,2129.2,3567,2129.2z M3899.9,2765.3L3899.9,2765.3c-3-3-3,0-3,0S3896.9,2768.3,3899.9,2765.3
		C3899.9,2768.3,3899.9,2765.3,3899.9,2765.3z M4084.2,2117.3C4084.2,2117.3,4084.2,2114.3,4084.2,2117.3c-3-3-3,0-3,0H4084.2
		L4084.2,2117.3z"/>
	<path d="M1577.3,1426.8c-14.9,11.9-23.8,17.8-32.7,23.8c-20.8-17.8-20.8-17.8-26.8-44.6c-11.9,8.9-23.8,26.8-41.6,20.8
		c-8.9-3-17.8-8.9-23.8-14.9c-3-41.6-5.9-80.3-8.9-118.9c-3-29.7-8.9-59.4-11.9-89.2c-3-23.8,0-50.5,0-74.3
		c-3-62.4-8.9-127.8-5.9-190.2c0-11.9,3-23.8,5.9-35.7c0-3,3-8.9,3-8.9c-11.9-23.8-3-50.5-5.9-74.3c-8.9-41.6-3-83.2-5.9-121.9
		c0-20.8,0-38.6,11.9-56.5c3-5.9,3-14.9,3-23.8c-5.9,0-8.9,0-11.9,3c-20.8-11.9,0-35.7-14.9-47.6c-14.9-11.9-3-32.7-17.8-41.6
		c5.9-11.9,14.9-14.9,26.8-8.9c8.9-38.6-8.9-77.3,11.9-115.9c-5.9-23.8-14.9-47.6-14.9-71.3c-3-32.7-5.9-68.4,0-98.1
		c3-23.8,3-47.6,5.9-74.3c0-5.9-3-14.9-5.9-23.8c3-5.9,5.9-11.9,8.9-20.8c-3-14.9-5.9-29.7-11.9-44.6c5.9-23.8,17.8-38.6,44.6-47.6
		c20.8,14.9,38.6,8.9,59.4-8.9c20.8,20.8,44.6,35.7,47.6,71.3c0,20.8,8.9,41.6,0,65.4c-3,5.9,0,14.9,0,20.8
		c0,38.6-5.9,80.3-14.9,118.9c-3,14.9,0,29.7,0,47.6c-5.9,5.9-14.9,8.9-20.8,14.9c3,3,5.9,3,11.9,5.9c0,23.8,5.9,47.6-5.9,71.3
		c-3,3-3,8.9-3,14.9c0,74.3-3,148.6,0,220c3,32.7,5.9,68.4,5.9,101.1c0,11.9-3,23.8-5.9,35.7c0,8.9,0,17.8,0,23.8
		c8.9,26.8,11.9,53.5,11.9,80.3c0,11.9,0,20.8,0,32.7c0,41.6,5.9,83.2,14.9,124.8c0,3,0,5.9,0,11.9c-3,41.6,8.9,80.3,14.9,121.9
		c5.9,44.6,17.8,86.2,26.8,127.8c59.4-5.9,118.9-8.9,175.4,0c56.5,8.9,115.9-8.9,172.4,11.9c3,14.9,5.9,26.8-5.9,38.6
		c-3,3-3,5.9-3,8.9c8.9,20.8-5.9,32.7-8.9,50.5C1809.2,1426.8,1690.3,1426.8,1577.3,1426.8z"/>
	<path d="M2229.1,1158.6c-6,3-8.9,5.9-14.9,11.9c20.7,53.5,17.6,110,44.3,166.5c44.6,0.1,86.2-2.8,130.8,0.2
		c35.7,3,74.3,3.1,110,12.1c17.8,3,41.6,0.1,62.4,0.1c3,6,5.9,11.9,8.9,20.8c5.9,3,11.9,3,14.9,6c8.9,17.9-3,29.7-9,44.6
		c5.9,26.8,2.9,32.7-20.9,32.7c-32.7-0.1-65.4-0.1-101.1-0.2c-20.8,0-41.6-9-59.4-6.1c-65.4,11.8-130.8,2.7-196.2,5.6
		c-14.9,0-32.7,2.9-44.6-12c-3-3-14.9,0-20.8,0c-3-3-3-6-5.9-8.9c-11.9,14.8-11.9,14.8-32.7,2.9c0-17.8-2.9-38.6,0.1-59.4
		c3-20.8,0.1-38.6,6.1-59.4c6-20.8,0.1-41.6,0.1-65.4c0.1-74.3,0.3-148.6,0.4-220c-2.8-110-2.6-220-5.3-330
		c0-17.8-2.9-38.6,0.1-56.5c3-17.8,0.1-38.6,0.1-56.5c15-86.2,3.3-175.4,6.4-261.6c3.1-44.6,6.1-89.2,6.2-133.8
		c0-11.9-5.9-26.8-2.9-38.6c6-29.7-2.9-59.5,23.9-83.2c23.8,3,29.7,20.9,32.6,41.7c6-3,8.9-3,14.9-5.9c0-5.9-3-11.9-2.9-17.8
		c0-5.9,6-8.9,8.9-17.8c5.9,0,11.9,0,20.8,0c3,6,5.9,11.9,11.9,20.8c-8.9,3-17.9,8.9-26.8,11.8c3,6,8.9,11.9,14.8,17.9
		c0,14.9-0.1,29.7-0.1,50.5c6-5.9,6-8.9,11.9-14.8c5.9,6,14.8,8.9,20.8,14.9c0,5.9,3,8.9,3,11.9c0,5.9,0,14.9,2.9,20.8
		c17.8,35.7,14.7,71.4,5.7,110l0,3c-3,35.7-6.1,71.3-6.1,104c-3.1,56.5-0.2,110-9.2,166.4c-6,47.5-0.2,92.1-6.2,136.7
		c-9,59.4-3.2,115.9-6.3,172.4c0,8.9,2.9,20.8,5.9,29.7c0,5.9,3,11.9,2.9,17.8c-11.9,29.7-9,59.4-6.1,86.2
		c5.9,32.7-0.1,68.4,11.7,101.1C2232.1,1137.8,2229.1,1146.7,2229.1,1158.6z M2191.9,364.9C2191.9,364.9,2191.9,367.9,2191.9,364.9
		C2191.9,367.9,2191.9,367.9,2191.9,364.9C2194.9,367.9,2191.9,367.9,2191.9,364.9z"/>
	<path d="M1068.1,44.6c5.9,8.9,8.9,17.8,11.9,23.8c23.8,5.9,47.6,8.9,68.4,14.9c5.9,38.6-14.9,71.3-8.9,110c3,0,8.9-3,14.9-3
		c11.9,26.8,14.9,53.5,5.9,83.2c-5.9,26.8-8.9,53.5-8.9,80.3c0,41.6,3,80.3-3,121.9c-8.9,56.5-5.9,110-5.9,166.5
		c0,38.6,5.9,80.3,5.9,118.9c0,38.6-3,80.3,0,118.9c11.9,86.2,3,175.4,5.9,261.6c3,41.6,5.9,83.2,5.9,121.9c0,41.6,0,80.3,0,121.9
		c0,8.9,5.9,14.9,5.9,23.8c0,11.9,8.9,23.8-5.9,32.7c0,0,0,5.9-3,8.9c-3,17.8-5.9,23.8-20.8,20.8c-26.8-8.9-53.5-5.9-83.2-5.9
		c-8.9-8.9-17.8-20.8-29.7-32.7c-3-38.6-3-80.3-8.9-121.9c-11.9-107-8.9-214-3-318.1c3-80.3,0-163.5,8.9-243.7
		c-8.9-47.6,3-95.1-11.9-142.7c-8.9-29.7-11.9-56.5,3-86.2c3-5.9,3-14.9,3-23.8c0-35.7,0-74.3,0-110c-5.9-5.9-11.9-14.9-17.8-20.8
		c0-3,0-5.9,0-8.9c0-3,3-3,3-5.9c3-47.6,5.9-95.1,5.9-139.7c0-14.9,0-26.8-3-41.6c-3-14.9,3-32.7,5.9-50.5c0-5.9,3-11.9,3-17.8
		c3-20.8,14.9-35.7,35.7-35.7C1062.1,47.6,1065.1,44.6,1068.1,44.6z M1127.5,270.5c8.9-20.8,8.9-44.6,3-68.4
		C1130.5,225.9,1130.5,246.7,1127.5,270.5z"/>
	<path d="M3409.4,1840.5c-3-8.9-3-23.8,17.8-29.7c8.9,32.7,47.6,50.5,47.6,92.1C3451,1882.1,3430.2,1861.3,3409.4,1840.5z"/>
	<path d="M2395.8,2390.8c-5.9,5.9-8.9,8.9-14.9,14.9c-8.9-3-17.8-5.9-26.8-11.9c5.9-26.8,23.8-14.9,41.6-17.8
		C2395.8,2381.8,2395.8,2387.8,2395.8,2390.8L2395.8,2390.8z"/>
	<path d="M2149.8,1411.9c0-5.9,0-11.9,3-17.8c5.9,0,11.9,0,17.8,0c0,5.9,0,11.9,0,20.8C2161.7,1411.9,2155.7,1411.9,2149.8,1411.9z"
		/>
	<path d="M2006.4,2039.6c3,5.9,8.9,11.9,14.9,20.8c-8.9,0-14.9,3-23.8,3c0-8.9,0-14.9,0-20.8
		C2000.5,2039.6,2003.4,2039.6,2006.4,2039.6z"/>
	<path d="M2018.3,1804.8c0,5.9,0,11.9,0,17.8c-8.9,0-14.9,0-23.8,0c5.9-8.9,11.9-14.9,17.8-20.8
		C2012.4,1804.8,2015.3,1804.8,2018.3,1804.8z"/>
	<path d="M2215.2,74.3c-3,3-6,8.9-11.9,11.9c-3-6-8.9-8.9-14.8-17.9c11.9,0,17.8,0,23.8-2.9C2212.2,68.4,2212.2,71.3,2215.2,74.3z"
		/>
	<path d="M2580.1,2869.3c3-3,5.9-8.9,11.9-14.9c5.9,5.9,8.9,11.9,14.9,17.8c-8.9,0-14.9,3-20.8,3
		C2583.1,2875.3,2583.1,2872.3,2580.1,2869.3z"/>
	<path d="M3659.1,2783.1c3,3,8.9,5.9,14.9,8.9c-5.9,5.9-8.9,8.9-14.9,14.9c-3-8.9-5.9-14.9-5.9-20.8
		C3653.2,2786.1,3656.1,2783.1,3659.1,2783.1z"/>
	<path d="M2009.4,2031.1c8.9,0,14.9,0,26.8-3c-5.9,8.9-8.9,14.9-11.9,20.8C2018.3,2043,2015.3,2037,2009.4,2031.1z"/>
	<path d="M2381,2423.4c-5.9,0-11.9,3-20.8,3C2363.1,2408.6,2372,2411.6,2381,2423.4z"/>
	<path d="M2455.3,2402.6c5.9,0,11.9,0,20.8-3C2470.1,2417.5,2464.2,2414.5,2455.3,2402.6z"/>
	<path d="M2440.4,1891c5.9,0,11.9,0,23.8,0C2455.3,1905.9,2446.3,1905.9,2440.4,1891z"/>
	<path d="M2404.7,2429.4c-3,3-5.9,5.9-8.9,5.9s-5.9-3-5.9-5.9c0-3,3-5.9,5.9-5.9C2398.8,2420.5,2401.8,2423.4,2404.7,2429.4z"/>
	<path d="M2597.4,942.3c-3,3-5.9,5.9-8.9,5.9c-3,0-5.9-3-5.9-5.9s3-5.9,5.9-5.9C2588.5,936.3,2591.5,939.3,2597.4,942.3z"/>
	<path d="M1117.7,2667.2c3,3,5.9,5.9,5.9,8.9c0,3-3,5.9-5.9,5.9c-3,0-5.9-3-5.9-5.9C1111.7,2676.1,1114.7,2673.1,1117.7,2667.2z"/>
	<path d="M3498.8,29.7c-3,3-5.9,5.9-8.9,5.9c-3,0-5.9-3-5.9-5.9c3-3,3-5.9,5.9-5.9C3492.8,23.8,3495.8,26.8,3498.8,29.7z"/>
	<path d="M3584.8,2827.7c0,3,0,5.9,0,8.9h-3c0-3,0-5.9-3-8.9C3581.8,2830.7,3584.8,2830.7,3584.8,2827.7z"/>
	<path d="M1102.8,1792.9c-3,0-5.9,0-8.9,0v-3c3,0,5.9,0,8.9-3C1102.8,1792.9,1102.8,1792.9,1102.8,1792.9z"/>
	<path d="M3029,2708.8c0,3,0,5.9,0,8.9h-3c0-3,0-5.9-3-8.9C3026,2708.8,3029,2708.8,3029,2708.8z"/>
	<path d="M2395.8,2390.8c3,3,3,5.9,5.9,11.9c-3,0-3,0-5.9,3C2398.8,2399.7,2395.8,2396.7,2395.8,2390.8L2395.8,2390.8z"/>
	<path d="M3044,29.7C3046.9,32.7,3046.9,32.7,3044,29.7C3046.9,32.7,3044,32.7,3044,29.7C3044,32.7,3044,32.7,3044,29.7z"/>
	<path d="M555.9,1085c-3,3-8.9,3-14.9,5.9c0-5.9,0-11.9,0-23.8C549.9,1076,552.9,1082,555.9,1085L555.9,1085z"/>
	<path d="M544,1132.5c0-3,0-5.9,0-11.9h3C546.9,1126.6,546.9,1129.5,544,1132.5C546.9,1132.5,544,1132.5,544,1132.5z"/>
	<path d="M368.6,603.4c0,3,0,5.9,0,11.9h-3C365.6,609.4,365.6,606.4,368.6,603.4C365.6,603.4,368.6,603.4,368.6,603.4z"/>
	<path d="M546.9,1108.7L546.9,1108.7C546.9,1111.7,544,1111.7,546.9,1108.7C544,1108.7,544,1108.7,546.9,1108.7z"/>
</g>
</svg>
