<?xml version="1.0" encoding="utf-8"?>
<!-- Generator: Adobe Illustrator 18.0.0, SVG Export Plug-In . SVG Version: 6.00 Build 0)  -->
<!DOCTYPE svg PUBLIC "-//W3C//DTD SVG 1.1//EN" "http://www.w3.org/Graphics/SVG/1.1/DTD/svg11.dtd">
<svg version="1.1" id="Layer_2_xA0_Image_1_"
	 xmlns="http://www.w3.org/2000/svg" xmlns:xlink="http://www.w3.org/1999/xlink" x="0px" y="0px"
	 viewBox="-3700.5 0 11562.3 2071.9" enable-background="new -3700.5 0 11562.3 2071.9" xml:space="preserve">
<g>
	<path d="M-2797.8,0c0,24.5,0,49.1,0,69.4c28.6,16.4,53.1,28.6,77.7,44.9c8.1,0,24.5,4.1,40.8,4.1c0,53.1,8.1,102.1-8.1,155.3
		c4.1,8.1,12.2,16.4,20.5,28.6c-8.1,53.1-8.1,110.4-20.5,163.4c0,8.1,0,12.2,0,20.5c0,53.1-8.1,102.1-20.5,151.2v4.1
		c-4.1,53.1-4.1,102.1-12.2,155.3c-8.1,61.3-4.1,118.5-8.1,175.7c0,24.5-12.2,49.1-4.1,77.7c4.1,24.5,0,49.1-4.1,73.5
		c-16.4,147.1-12.2,294.2-8.1,445.4c0,102.1,4.1,200.3,12.2,302.4c0,28.6,16.4,57.2,0,85.8c-4.1,4.1,4.1,16.4,8.1,28.6
		c-12.2,12.2-20.5,24.5-32.7,36.8c-32.7-12.2-69.4,16.4-94-16.4c-44.9-8.1-81.6,0-114.4,32.7c-53.1-12.2-65.4-53.1-77.7-94
		c-8.1-28.6-16.4-49.1-40.8-65.4c-20.5-16.4-36.8-40.8-44.9-65.4c-8.1-20.5-20.5-32.7-28.6-53.1c-8.1-16.4-16.4-32.7-28.6-53.1
		c-44.9,53.1-85.8,106.3-130.7,159.3c-12.2,57.2-61.3,89.9-85.8,139c0,12.2,4.1,24.5,0,32.7c-4.1,16.4-20.5,12.2-32.7,16.4
		c-20.5,4.1-36.8,12.2-53.1,16.4c-36.8-8.1-69.4-16.4-106.3-24.5c-8.1-12.2-20.5-24.5-32.7-36.8c8.1-12.2,16.4-24.5,20.5-32.7
		c-4.1-32.7-12.2-65.4-16.4-98c-4.1-28.6-8.1-57.2-8.1-89.9c-4.1-28.6-4.1-61.3-8.1-89.9c-8.1-49.1-4.1-98-16.4-147.1
		c0-4.1,0-8.1,0-16.4c-8.1-61.3-12.2-130.7-16.4-196.2c-4.1-32.7-8.1-65.4-8.1-102.1c-4.1-32.7-4.1-65.4-8.1-98
		c-8.1-57.2,0-114.4-4.1-171.5c0-8.1,8.1-24.5-8.1-28.6c0-73.5,0-143,0-216.5c4.1-8.1,8.1-16.4,8.1-24.5c0-44.9,0-89.9,0-139
		c0-16.4,8.1-36.8,4.1-49.1c-12.2-53.1,0-110.4,16.4-163.4c8.1-36.8,12.2-73.5,12.2-110.4c0-16.4,0-32.7,0-49.1
		c0-24.5,12.2-49.1,32.7-57.2c44.9-16.4,89.9-24.5,134.8,0c0,8.1,0,16.4,0,24.5c-8.1,12.2-12.2,16.4-16.4,20.5
		c4.1,40.8,12.2,77.7,16.4,114.4c4.1,61.3,4.1,122.6,8.1,183.9c8.1,151.2-4.1,298.3,8.1,449.5c8.1,102.1,0,204.3,0,302.4
		c0,36.8-4.1,69.4,4.1,102.1c8.1,36.8,8.1,69.4,8.1,102.1c0,57.2,4.1,114.4,20.5,167.6c8.1,24.5,20.5,53.1,0,77.7
		c-4.1,4.1,0,8.1,0,16.4c4.1,16.4,8.1,32.7,12.2,53.1c16.4-12.2,28.6-20.5,40.8-40.8c20.5-44.9,49.1-85.8,77.7-126.6
		c28.6-36.8,61.3-73.5,94-110.4c12.2,4.1,28.6,4.1,44.9,8.1c12.2-4.1,20.5-8.1,32.7-16.4c12.2,8.1,28.6,16.4,32.7,20.5
		c28.6,8.1,49.1,12.2,69.4,16.4c16.4,4.1,28.6,8.1,28.6,24.5s-12.2,24.5-28.6,24.5c-4.1,0-4.1,4.1-8.1,4.1
		c28.6,65.4,44.9,134.8,85.8,200.3c0-28.6,4.1-49.1,0-69.4c-8.1-20.5,0-36.8,4.1-49.1c12.2-44.9,20.5-89.9,16.4-139l0,0
		c4.1,0,12.2,0,20.5,4.1c0,28.6,0,53.1,0,81.6c8.1-12.2,8.1-20.5,8.1-32.7c-4.1-61.3-8.1-118.5-8.1-179.8c0-36.8-12.2-73.5,0-110.4
		c0-4.1,0-8.1-4.1-12.2c-12.2-28.6-8.1-53.1-4.1-81.6c0-4.1,4.1-12.2,4.1-12.2c-20.5-32.7,0-65.4-8.1-98c-4.1-32.7-4.1-69.4,0-102.1
		c8.1-57.2,8.1-114.4,8.1-167.6c0-12.2,4.1-24.5,0-32.7c-20.5-24.5,4.1-49.1-8.1-73.5c20.5-53.1,4.1-110.4,8.1-163.4
		c0-12.2-4.1-28.6,4.1-36.8c8.1-16.4,4.1-24.5,0-40.8c-8.1-36.8-8.1-73.5-12.2-106.3c12.2,0,24.5-4.1,28.6-4.1
		c8.1-36.8,16.4-69.4,24.5-102.1c4.1-24.5,12.2-49.1,12.2-77.7c0-49.1-4.1-98,12.2-143C-2834.7,0-2818.3,0-2797.8,0z
		 M-3406.6,1785.6c0-4.1,4.1-4.1,4.1-8.1C-3402.6,1781.4-3402.6,1785.6-3406.6,1785.6c-4.1,4.1-8.1,8.1-8.1,8.1
		c-16.4,8.1-28.6,20.5-28.6,40.8c-4.1,4.1-4.1,8.1-8.1,16.4c0,0,4.1,0,4.1,4.1c0-4.1,0-12.2,4.1-16.4c16.4-8.1,28.6-20.5,28.6-40.8
		C-3410.7,1793.7-3406.6,1789.6-3406.6,1785.6z M-2887.7,351.3C-2887.7,347.4-2887.7,347.4-2887.7,351.3c-4.1-4.1-4.1,0-4.1,0
		S-2891.8,351.3-2887.7,351.3L-2887.7,351.3z"/>
	<path d="M1378.6,972.4c-24.5,4.1-40.8,4.1-61.3,8.1c-12.2,0-24.5,4.1-36.8,4.1c-61.3,0-122.6,0-187.9,0
		c-61.3,0-126.6,4.1-187.9,8.1c0,16.4,8.1,32.7,4.1,40.8c-12.2,28.6-8.1,53.1-8.1,81.6c0,65.4,0,134.8,0,200.3c0,32.7-8.1,65.4,0,98
		c4.1,32.7,0,69.4,0,106.3c-12.2,4.1-24.5,12.2-40.8,20.5c20.5,134.8,8.1,273.8,12.2,412.6c-8.1,12.2-16.4,28.6-44.9,28.6
		c-8.1-12.2-20.5-24.5-36.8-40.8c-24.5,4.1-40.8,32.7-73.5,16.4c-8.1-24.5-28.6-44.9-28.6-73.5c0-16.4-8.1-32.7-4.1-49.1
		c12.2-24.5,8.1-53.1,8.1-77.7c0-196.2,0-388.2,0-584.3c-12.2-8.1-28.6-16.4-40.8-24.5c8.1-20.5,16.4-36.8,20.5-53.1
		c-4.1-16.4-12.2-32.7-16.4-53.1c4.1-8.1,12.2-28.6,20.5-32.7c32.7-16.4,24.5-44.9,24.5-73.5c0-8.1-8.1-16.4-8.1-20.5
		c16.4-32.7,4.1-69.4,8.1-102.1c4.1-24.5,8.1-53.1,16.4-81.6c-8.1-4.1-16.4-12.2-24.5-20.5c0-4.1,0-8.1,0-8.1
		c44.9-61.3,98-122.6,130.7-192c4.1-8.1,12.2-20.5,20.5-28.6c16.4-12.2,24.5-32.7,36.8-49.1c40.8-61.3,89.9-114.4,122.6-179.8
		c4.1-4.1,8.1-8.1,12.2-12.2c8.1-8.1,20.5-16.4,28.6-28.6c8.1-16.4,12.2-36.8,32.7-49.1c16.4-12.2,32.7-24.5,49.1-40.8
		c12.2,4.1,24.5,12.2,32.7,16.4c20.5-4.1,44.9-12.2,65.4-16.4c8.1,8.1,20.5,16.4,24.5,24.5c-4.1,24.5-8.1,44.9-8.1,61.3
		c36.8,73.5,94,130.7,143,192c16.4,20.5,28.6,40.8,36.8,69.4c8.1,32.7,28.6,61.3,44.9,89.9c4.1,4.1,8.1,8.1,8.1,12.2
		c24.5,53.1,65.4,94,98,147.1c-8.1,12.2-12.2,20.5-20.5,32.7c-8.1,16.4-16.4,32.7-16.4,49.1c-4.1,20.5-4.1,44.9-8.1,65.4
		c-4.1,24.5,4.1,49.1,4.1,77.7c0,16.4,4.1,28.6,4.1,44.9c0,36.8,0,73.5,0,114.4c0,20.5,4.1,40.8-8.1,61.3
		c-8.1,16.4,16.4,36.8,0,53.1c12.2,24.5,0,49.1,0,73.5c0,24.5-4.1,53.1,0,77.7c12.2,61.3,4.1,122.6,8.1,183.9
		c0,24.5,8.1,49.1,8.1,77.7c4.1,24.5,4.1,49.1,8.1,77.7c8.1,36.8,4.1,77.7,4.1,118.5s0,77.7,20.5,110.4
		c-8.1,24.5-12.2,49.1-36.8,65.4c-12.2-12.2-28.6-24.5-44.9-36.8c-20.5,4.1-44.9,8.1-65.4,12.2c-32.7-24.5-44.9-49.1-40.8-94
		c4.1-61.3-12.2-126.6-12.2-187.9c-4.1-57.2,4.1-118.5-4.1-175.7c-12.2-89.9-4.1-179.8-8.1-269.7c0-20.5-4.1-44.9,8.1-65.4
		c4.1-4.1,0-12.2,0-20.5c-4.1-32.7-12.2-65.4-8.1-94C1378.6,1041.9,1378.6,1013.3,1378.6,972.4z M851.6,1405.5
		c-4.1,0-4.1-4.1-8.1-4.1C843.3,1401.5,847.5,1401.5,851.6,1405.5c4.1,0,4.1,4.1,8.1,4.1C855.6,1405.5,851.6,1405.5,851.6,1405.5z
		 M868,772.2c12.2,0,20.5,4.1,28.6,4.1c44.9,0,94-4.1,139-8.1c94-8.1,192-8.1,286-12.2c16.4,0,36.8,0,57.2,0
		c-12.2-36.8-32.7-57.2-49.1-81.6c-40.8-57.2-77.7-118.5-122.6-171.5c-16.4-20.5-32.7-44.9-24.5-69.4
		c-16.4-20.5-28.6-36.8-40.8-53.1c-12.2,16.4-24.5,32.7-36.8,49.1c-12.2,12.2-28.6,24.5-36.8,40.8
		c-40.8,61.3-85.8,122.6-126.6,183.9C916.9,686.5,896.5,727.3,868,772.2z"/>
	<path d="M496.1,118.5c-4.1,12.2-12.2,24.5-16.4,40.8c4.1,4.1,12.2,8.1,16.4,12.2c20.5,20.5,28.6,32.7,16.4,57.2
		c-8.1,16.4-12.2,36.8-16.4,53.1c-4.1,24.5-20.5,44.9-36.8,65.4c-16.4,20.5-32.7,40.8-49.1,61.3C353,486.2,295.9,559.7,238.7,637.4
		c-36.8,53.1-69.4,106.3-106.3,159.3c-8.1,12.2-16.4,28.6-8.1,40.8c24.5,44.9,28.6,98,44.9,147.1c24.5,65.4,40.8,130.7,61.3,196.2
		c16.4,57.2,28.6,110.4,36.8,167.6c0,8.1,4.1,12.2,4.1,16.4c32.7,61.3,44.9,130.7,61.3,200.3c24.5,110.4,65.4,216.5,118.5,318.8
		c8.1,12.2,12.2,24.5,20.5,40.8c0,0,0,4.1,0,12.2c-8.1,8.1-16.4,20.5-24.5,28.6c-24.5,0-32.7-12.2-36.8-24.5
		c-8.1,8.1-20.5,16.4-28.6,24.5c-28.6-16.4-61.3-32.7-89.9-53.1c-12.2,4.1-24.5,12.2-40.8,16.4c-36.8-20.5-44.9-53.1-49.1-85.8
		c-16.4-77.7-32.7-151.2-57.2-228.9c-24.5-73.5-49.1-147.1-73.5-216.5c-16.4-44.9-24.5-94-32.7-143c-8.1-36.8-12.2-73.5-20.5-114.4
		c0-8.1-4.1-16.4-8.1-20.5c-12.2-20.5-20.5-44.9-20.5-69.4c0-24.5-8.1-44.9-16.4-69.4c-40.8,8.1-77.7,12.2-118.5-4.1
		c-4.1,8.1-12.2,16.4-8.1,20.5c12.2,16.4-4.1,32.7-4.1,44.9c0,44.9-8.1,89.9-16.4,134.8c-8.1,28.6-4.1,57.2,0,85.8
		c8.1,61.3,12.2,73.5,0,134.8c-4.1,12.2,0,24.5,0,32.7c0,57.2,0,110.4,0,167.6c0,36.8-12.2,77.7-8.1,114.4
		c8.1,57.2,4.1,114.4,16.4,167.6c8.1,28.6,0,53.1-24.5,77.7c-36.8-4.1-77.7-12.2-114.4,12.2c-12.2-12.2-24.5-24.5-36.8-36.8
		c0-53.1,0-102.1,0-155.3c0-61.3,0-122.6,0-179.8c0-36.8,4.1-73.5,12.2-110.4c4.1-20.5,4.1-40.8,8.1-61.3
		c20.5-208.4,4.1-420.9,12.2-629.3c0-24.5,8.1-49.1,8.1-69.4c4.1-20.5-4.1-44.9,8.1-65.4c4.1-4.1,0-8.1,0-16.4
		c4.1-69.4,8.1-143,12.2-212.5c0-12.2,4.1-28.6,4.1-40.8c0-24.5,8.1-44.9,4.1-69.4c-16.4-61.3,8.1-114.4,24.5-171.5
		c0-8.1,4.1-16.4,8.1-24.5c4.1-12.2,12.2-24.5,20.5-32.7c16.4-16.4,36.8-8.1,57.2-16.4c16.4-8.1,12.2,28.6,28.6,12.2
		c4.1,24.5,28.6,36.8,53.1,53.1c16.4,36.8-4.1,77.7,0,118.5c0,16.4-8.1,32.7-8.1,53.1c0,40.8-8.1,81.6-16.4,122.6
		c0,4.1,0,8.1-4.1,12.2c-4.1,44.9,0,89.9-12.2,134.8c-12.2,53.1,0,106.3-16.4,159.3c-8.1,24.5,0,53.1,0,77.7
		c44.9-20.5,44.9-20.5,89.9-8.1c36.8-49.1,77.7-94,110.4-143c49.1-73.5,94-151.2,147.1-228.9c44.9-65.4,85.8-130.7,134.8-196.2
		c28.6-40.8,61.3-81.6,94-122.6C447.1,94,471.5,94,496.1,118.5z"/>
	<path d="M-1781.8,1961.2c-20.5,16.4-32.7,24.5-44.9,32.7c-28.6-24.5-28.6-24.5-36.8-61.3c-16.4,12.2-32.7,36.8-57.2,28.6
		c-12.2-4.1-24.5-12.2-32.7-20.5c-4.1-57.2-8.1-110.4-12.2-163.4c-4.1-40.8-12.2-81.6-16.4-122.6c-4.1-32.7,0-69.4,0-102.1
		c-4.1-85.8-12.2-175.7-8.1-261.4c0-16.4,4.1-32.7,8.1-49.1c0-4.1,4.1-12.2,4.1-12.2c-16.4-32.7-4.1-69.4-8.1-102.1
		c-12.2-57.2-4.1-114.4-8.1-167.6c0-28.6,0-53.1,16.4-77.7c4.1-8.1,4.1-20.5,4.1-32.7c-8.1,0-12.2,0-16.4,4.1
		c-28.6-16.4,0-49.1-20.5-65.4c-20.5-16.4-4.1-44.9-24.5-57.2c8.1-16.4,20.5-20.5,36.8-12.2c12.2-53.1-12.2-106.3,16.4-159.3
		c-8.1-32.7-20.5-65.4-20.5-98c-4.1-44.9-8.1-94,0-134.8c4.1-32.7,4.1-65.4,8.1-102.1c0-8.1-4.1-20.5-8.1-32.7
		c4.1-8.1,8.1-16.4,12.2-28.6c-4.1-20.5-8.1-40.8-16.4-61.3c8.1-32.7,24.5-53.1,61.3-65.4c28.6,20.5,53.1,12.2,81.6-12.2
		c28.6,28.6,61.3,49.1,65.4,98c0,28.6,12.2,57.2,0,89.9c-4.1,8.1,0,20.5,0,28.6c0,53.1-8.1,110.4-20.5,163.4
		c-4.1,20.5,0,40.8,0,65.4c-8.1,8.1-20.5,12.2-28.6,20.5c4.1,4.1,8.1,4.1,16.4,8.1c0,32.7,8.1,65.4-8.1,98
		c-4.1,4.1-4.1,12.2-4.1,20.5c0,102.1-4.1,204.3,0,302.4c4.1,44.9,8.1,94,8.1,139c0,16.4-4.1,32.7-8.1,49.1c0,12.2,0,24.5,0,32.7
		c12.2,36.8,16.4,73.5,16.4,110.4c0,16.4,0,28.6,0,44.9c0,57.2,8.1,114.4,20.5,171.5c0,4.1,0,8.1,0,16.4
		c-4.1,57.2,12.2,110.4,20.5,167.6c8.1,61.3,24.5,118.5,36.8,175.7c81.6-8.1,163.4-12.2,241.1,0c77.7,12.2,159.3-12.2,237,16.4
		c4.1,20.5,8.1,36.8-8.1,53.1c-4.1,4.1-4.1,8.1-4.1,12.2c12.2,28.6-8.1,44.9-12.2,69.4C-1463.1,1961.2-1626.5,1961.2-1781.8,1961.2z
		"/>
	<path d="M-950.9,1592.6c-8.2,4.1-12.2,8.1-20.5,16.4c28.5,73.5,24.2,151.2,60.9,228.9c61.3,0.1,118.5-3.8,179.8,0.3
		c49.1,4.1,102.1,4.3,151.2,16.6c24.5,4.1,57.2,0.1,85.8,0.1c4.1,8.2,8.1,16.4,12.2,28.6c8.1,4.1,16.4,4.1,20.5,8.2
		c12.2,24.6-4.1,40.8-12.4,61.3c8.1,36.8,4,44.9-28.7,44.9c-44.9-0.1-89.9-0.1-139-0.3c-28.6,0-57.2-12.4-81.6-8.4
		c-89.9,16.2-179.8,3.7-269.7,7.7c-20.5,0-44.9,4-61.3-16.5c-4.1-4.1-20.5,0-28.6,0c-4.1-4.1-4.1-8.2-8.1-12.2
		c-16.4,20.3-16.4,20.3-44.9,4c0-24.5-4-53.1,0.1-81.6c4.1-28.6,0.1-53.1,8.4-81.6c8.2-28.6,0.1-57.2,0.1-89.9
		c0.1-102.1,0.4-204.3,0.5-302.4c-3.8-151.2-3.6-302.4-7.3-453.6c0-24.5-4-53.1,0.1-77.7c4.1-24.5,0.1-53.1,0.1-77.7
		c20.6-118.5,4.5-241.1,8.8-359.6c4.3-61.3,8.4-122.6,8.5-183.9c0-16.4-8.1-36.8-4-53.1c8.2-40.8-4-81.8,32.9-114.4
		c32.7,4.1,40.8,28.7,44.8,57.3c8.2-4.1,12.2-4.1,20.5-8.1c0-8.1-4.1-16.4-4-24.5c0-8.1,8.2-12.2,12.2-24.5c8.1,0,16.4,0,28.6,0
		c4.1,8.2,8.1,16.4,16.4,28.6c-12.2,4.1-24.6,12.2-36.8,16.2c4.1,8.2,12.2,16.4,20.3,24.6c0,20.5-0.1,40.8-0.1,69.4
		c8.2-8.1,8.2-12.2,16.4-20.3c8.1,8.2,20.3,12.2,28.6,20.5c0,8.1,4.1,12.2,4.1,16.4c0,8.1,0,20.5,4,28.6
		c24.5,49.1,20.2,98.1,7.8,151.2v4.1c-4.1,49.1-8.4,98-8.4,143c-4.3,77.7-0.3,151.2-12.6,228.7c-8.2,65.3-0.3,126.6-8.5,187.9
		c-12.4,81.6-4.4,159.3-8.7,237c0,12.2,4,28.6,8.1,40.8c0,8.1,4.1,16.4,4,24.5c-16.4,40.8-12.4,81.6-8.4,118.5
		c8.1,44.9-0.1,94,16.1,139C-946.8,1564-950.9,1576.2-950.9,1592.6z M-1002,501.6C-1002,501.6-1002,505.7-1002,501.6
		C-1002,505.7-1002,505.7-1002,501.6C-997.9,505.7-1002,505.7-1002,501.6z"/>
	<path d="M-2367.3,61.3c8.1,12.2,12.2,24.5,16.4,32.7c32.7,8.1,65.4,12.2,94,20.5c8.1,53.1-20.5,98-12.2,151.2
		c4.1,0,12.2-4.1,20.5-4.1c16.4,36.8,20.5,73.5,8.1,114.4c-8.1,36.8-12.2,73.5-12.2,110.4c0,57.2,4.1,110.4-4.1,167.6
		c-12.2,77.7-8.1,151.2-8.1,228.9c0,53.1,8.1,110.4,8.1,163.4c0,53.1-4.1,110.4,0,163.4c16.4,118.5,4.1,241.1,8.1,359.6
		c4.1,57.2,8.1,114.4,8.1,167.6c0,57.2,0,110.4,0,167.6c0,12.2,8.1,20.5,8.1,32.7c0,16.4,12.2,32.7-8.1,44.9c0,0,0,8.1-4.1,12.2
		c-4.1,24.5-8.1,32.7-28.6,28.6c-36.8-12.2-73.5-8.1-114.4-8.1c-12.2-12.2-24.5-28.6-40.8-44.9c-4.1-53.1-4.1-110.4-12.2-167.6
		c-16.4-147.1-12.2-294.2-4.1-437.3c4.1-110.4,0-224.7,12.2-335c-12.2-65.4,4.1-130.7-16.4-196.2c-12.2-40.8-16.4-77.7,4.1-118.5
		c4.1-8.1,4.1-20.5,4.1-32.7c0-49.1,0-102.1,0-151.2c-8.1-8.1-16.4-20.5-24.5-28.6c0-4.1,0-8.1,0-12.2s4.1-4.1,4.1-8.1
		c4.1-65.4,8.1-130.7,8.1-192c0-20.5,0-36.8-4.1-57.2c-4.1-20.5,4.1-44.9,8.1-69.4c0-8.1,4.1-16.4,4.1-24.5
		c4.1-28.6,20.5-49.1,49.1-49.1C-2375.6,65.4-2371.5,61.3-2367.3,61.3z M-2285.7,371.8c12.2-28.6,12.2-61.3,4.1-94
		C-2281.6,310.5-2281.6,339.1-2285.7,371.8z"/>
	<path d="M3976.1,1940.8c0-8.1,0-16.4,4.1-24.5c8.1,0,16.4,0,24.5,0c0,8.1,0,16.4,0,28.6C3992.4,1940.8,3984.2,1940.8,3976.1,1940.8
		z"/>
	<path d="M-970,102.1c-4.1,4.1-8.2,12.2-16.4,16.4c-4.1-8.2-12.2-12.2-20.3-24.6c16.4,0,24.5,0,32.7-4C-974.1,94-974.1,98-970,102.1
		z"/>
	<path d="M-444.6,1295.3c-4.1,4.1-8.1,8.1-12.2,8.1s-8.1-4.1-8.1-8.1c0-4,4.1-8.1,8.1-8.1C-456.9,1287-452.7,1291.1-444.6,1295.3z"
		/>
	<path d="M754.4,40.8c-4.1,4.1-8.1,8.1-12.2,8.1s-8.1-4.1-8.1-8.1c4.1-4.1,4.1-8.1,8.1-8.1C746.2,32.7,750.3,36.8,754.4,40.8z"/>
	<path d="M129.3,40.8C133.2,44.9,133.2,44.9,129.3,40.8C133.2,44.9,129.3,44.9,129.3,40.8C129.3,44.9,129.3,44.9,129.3,40.8z"/>
	<path d="M-2944.9,1491.4c-4.1,4.1-12.2,4.1-20.5,8.1c0-8.1,0-16.4,0-32.7C-2953.1,1479-2949,1487.3-2944.9,1491.4L-2944.9,1491.4z"
		/>
	<path d="M-2961.3,1556.7c0-4.1,0-8.1,0-16.4h4.1C-2957.3,1548.6-2957.3,1552.6-2961.3,1556.7
		C-2957.3,1556.7-2961.3,1556.7-2961.3,1556.7z"/>
	<path d="M-3202.4,829.4c0,4.1,0,8.1,0,16.4h-4.1C-3206.5,837.7-3206.5,833.5-3202.4,829.4C-3206.5,829.4-3202.4,829.4-3202.4,829.4
		z"/>
	<path d="M-2957.3,1524L-2957.3,1524C-2957.3,1528.1-2961.3,1528.1-2957.3,1524C-2961.3,1524-2961.3,1524-2957.3,1524z"/>
	<path d="M4003.7,680.4c4.1,4.1,44.9,57.2,49.1,57.2s4.1,4.1,8.1,4.1c4.1,0,4.1,4.1,12.2,12.2c4.1,49.1,4.1,106.3,8.1,163.4
		c8.1,53.1,4.1,110.4,16.4,163.4c4.1,12.2,4.1,24.5,0,32.7c-12.2,69.4,4.1,139,0,208.4c0,28.6,4.1,61.3,8.1,89.9
		c4.1,28.6,4.1,61.3,8.1,89.9c4.1,53.1,24.5,106.3,8.1,163.4c-4.1,12.2,0,32.7,4.1,44.9c4.1,16.4,8.1,28.6,20.5,53.1
		c0,12.2,4.1,32.7-16.4,53.1c-8.1,8.1-12.2,20.5-4.1,36.8c4.1,8.1-4.1,16.4-4.1,28.6c4.1,4.1,8.1,12.2,16.4,16.4c0,4.1,0,8.1,0,8.1
		c-8.1,12.2-12.2,28.6-20.5,40.8c-8.1,12.2-16.4,24.5-32.7,32.7c-20.5,8.1-32.7,28.6-49.1,44.9c-20.5,0-20.5-20.5-24.5-36.8
		c-40.8,0-61.3-28.6-77.7-61.3c-4.1-8.1-8.1-24.5-4.1-32.7c16.4-40.8,0-81.6,8.1-118.5c-12.2-8.1-20.5-16.4-28.6-20.5
		c0-4.1,0-8.1,0-12.2c12.2-24.5,20.5-40.8,12.2-73.5c-12.2-36.8-12.2-77.7-12.2-114.4c0-44.9-4.1-89.9,0-139
		c4.1-85.8-16.4-171.5-12.2-257.5c-16.4-44.9-12.2-89.9,0-134.8c4.1-12.2,0-24.5,0-44.9c-57.2,4.1-110.4-8.1-167.6,8.1
		c-4.1,0-8.1,0-8.1,0c-73.5,4.1-143,8.1-216.5,8.1c-32.7,0-69.4,0-106.3,0c0,12.2-4.1,24.5-4.1,32.7c0,81.6-4.1,167.6,0,249.2
		c8.1,106.3,8.1,212.5,8.1,314.6c20.5,49.1,4.1,106.3,16.4,159.3c8.1,28.6-4.1,61.3-8.1,89.9c0,12.2-4.1,20.5-8.1,32.7
		c-8.1,20.5-12.2,44.9-24.5,61.3c-16.4,20.5-44.9,28.6-69.4,40.8c-12.2,8.1-28.6,8.1-49.1,8.1c-8.1-16.4-16.4-28.6-20.5-44.9
		c-12.2-40.8-24.5-81.6-20.5-122.6c4.1-53.1,0-106.3,0-163.4c0-126.6,16.4-253.3,8.1-379.9c0-16.4,0-32.7,0-49.1
		c-8.1-16.4-16.4-24.5-16.4-65.4c-4.1-65.4-4.1-126.6,0-192c0-20.5,8.1-40.8,12.2-57.2c-16.4-12.2-36.8-20.5-40.8-44.9
		c16.4-24.5,32.7-53.1,53.1-77.7c53.1-61.3,73.5-139,110.4-204.3c12.2-24.5,24.5-53.1,32.7-77.7c32.7-69.4,61.3-139,94-204.3
		c20.5-44.9,40.8-85.8,61.3-130.7c8.1-20.5,16.4-36.8,20.5-61.3c12.2,0,24.5,4.1,40.8,4.1c8.1-20.5,28.6-12.2,49.1-12.2
		c20.5,28.6,36.8,61.3,61.3,94c32.7,4.1,49.1,28.6,69.4,53.1c8.1,12.2,16.4,24.5,24.5,36.8c12.2,20.5,28.6,40.8,57.2,49.1
		c12.2,16.4,20.5,32.7,28.6,44.9c-4.1,8.1-4.1,12.2-12.2,20.5c8.1,12.2,20.5,28.6,32.7,36.8c16.4,8.1,20.5,16.4,28.6,28.6
		c28.6,53.1,61.3,106.3,94,155.3c0,16.4,0,32.7,0,53.1C4020.1,684.5,4012,680.4,4003.7,680.4c-20.5-49.1-53.1-89.9-85.8-134.8
		c-4.1,4.1-8.1,8.1-8.1,12.2c20.5,32.7,44.9,69.4,65.4,106.3C3979.3,672.2,3987.5,680.4,4003.7,680.4z M3844.4,435.2
		c-4.1-4.1-8.1-8.1-8.1-8.1c-4.1-8.1-8.1-12.2-8.1-20.5c-4.1-4.1-8.1-8.1-8.1-8.1c-4.1-4.1-8.1-8.1-8.1-8.1
		c-4.1-4.1-8.1-8.1-8.1-8.1c0-16.4-4.1-24.5-20.5-28.6c-4.1-4.1-8.1-8.1-8.1-8.1c-4.1-8.1-8.1-12.2-8.1-20.5
		c-4.1-4.1-8.1-8.1-8.1-8.1c-16.4-16.4-16.4-24.5-20.5-28.6c-4.1-4.1-8.1-8.1-8.1-8.1c-8.1-36.8-32.7-53.1-65.4-61.3
		c20.5,20.5,44.9,40.8,65.4,61.3c4.1,4.1,8.1,8.1,8.1,8.1c4.1,8.1,8.1,12.2,8.1,20.5c4.1,4.1,8.1,8.1,8.1,8.1
		c4.1,8.1,8.1,12.2,8.1,20.5c4.1,4.1,8.1,8.1,8.1,8.1c0,16.4,4.1,24.5,20.5,28.6c4.1,4.1,8.1,8.1,8.1,8.1c4.1,4.1,8.1,8.1,8.1,8.1
		c4.1,4.1,8.1,8.1,8.1,8.1c4.1,8.1,8.1,12.2,8.1,20.5C3840.3,427.1,3840.3,431.2,3844.4,435.2c4.1,0,4.1,4.1,8.1,4.1
		C3848.5,435.2,3848.5,435.2,3844.4,435.2z M3885.2,492.4c-4.1-4.1-8.1-8.1-8.1-8.1c0-4.1,0-12.2-4.1-16.4c-4.1,0-4.1,0-8.1,4.1
		c4.1,4.1,4.1,8.1,8.1,16.4C3877.1,484.3,3881.3,488.4,3885.2,492.4c4.1,8.1,8.1,12.2,8.1,20.5c4.1,0,4.1,4.1,8.1,4.1
		c-4.1,0-4.1-4.1-8.1-4.1C3889.4,504.7,3889.4,500.6,3885.2,492.4z M3824.1,512.9c4.1,0,4.1,4.1,8.1,4.1
		C3832.2,517,3828.1,512.9,3824.1,512.9c-4.1-8.1-8.1-12.2-8.1-20.5c-4.1-8.1-8.1-12.2-8.1-20.5c-4.1,0-4.1-4.1-8.1-4.1
		c4.1,0,4.1,4.1,8.1,4.1c4.1,8.1,8.1,12.2,8.1,20.5C3819.9,500.6,3824.1,504.7,3824.1,512.9z M3844.4,541.4c-4.1,0-4.1-4.1-8.1-4.1
		C3840.3,537.3,3844.4,541.4,3844.4,541.4c4.1,8.1,8.1,12.2,8.1,20.5c4.1,0,4.1,4.1,8.1,4.1c-4.1,0-4.1-4.1-8.1-4.1
		C3852.7,553.7,3848.5,549.7,3844.4,541.4z M3787.2,435.2c-4.1,0-4.1-4.1-8.1-4.1C3783.1,431.2,3783.1,431.2,3787.2,435.2
		c0,4.1,0,12.2,4.1,16.4c4.1,0,4.1,0,8.1-4.1C3791.4,443.4,3791.4,439.3,3787.2,435.2z M3464.5,807c20.5,0,44.9,4.1,65.4,0
		c36.8-12.2,69.4-8.1,106.3-8.1c44.9,0,89.9,0,130.7,0c36.8,0,69.4-8.1,106.3-12.2c-8.1-16.4-8.1-32.7-16.4-44.9
		c-20.5-36.8-32.7-81.6-65.4-110.4c-36.8-32.7-65.4-69.4-81.6-118.5c-12.2-28.6-32.7-57.2-53.1-94c-24.5,40.8-49.1,73.5-69.4,110.4
		C3533.9,615,3501.2,709,3464.5,807z M3938.4,688.5c-4.1,12.2-8.1,16.4-16.4,28.6c12.2,0,20.5,0,28.6,0
		C3946.5,704.9,3942.6,700.8,3938.4,688.5z M3975.1,754h4.1c0-12.2,0-20.5,0-32.7h-4.1C3975.1,733.5,3975.1,741.7,3975.1,754z
		 M3762.8,390.2C3762.8,390.2,3762.8,386.3,3762.8,390.2L3762.8,390.2L3762.8,390.2z M3909.8,643.6
		C3909.8,643.6,3905.7,643.6,3909.8,643.6L3909.8,643.6L3909.8,643.6z M3922.1,664.1C3922.1,664.1,3918,664.1,3922.1,664.1
		c-4.1-4.1-4.1,0-4.1,0S3918,664.1,3922.1,664.1C3918,664.1,3922.1,664.1,3922.1,664.1z M3873,586.4
		C3873,586.4,3873,582.3,3873,586.4C3869,586.4,3869,586.4,3873,586.4C3869,586.4,3873,586.4,3873,586.4z M3770.9,406.6
		L3770.9,406.6C3770.9,410.7,3770.9,410.7,3770.9,406.6C3775,406.6,3770.9,406.6,3770.9,406.6z"/>
	<path d="M6414.4,157.4c20.5-20.5,40.8-40.8,57.2-61.3c20.5-4.1,40.8-12.2,65.4-16.4c8.1,12.2,16.4,24.5,20.5,40.8
		c8.1-4.1,16.4-4.1,20.5-8.1c24.5,12.2,24.5,36.8,24.5,57.2c57.2,77.7,130.7,143,196.2,212.5c12.2,12.2,24.5,28.6,32.7,49.1
		c12.2,24.5,32.7,49.1,49.1,73.5c12.2,16.4,28.6,36.8,40.8,53.1c8.1,8.1,12.2,24.5,16.4,36.8c-12.2,8.1-20.5,16.4-28.6,20.5
		c0,12.2,8.1,24.5,4.1,32.7c-28.6,32.7-20.5,73.5-16.4,106.3c8.1,40.8,4.1,81.6,8.1,122.6c0,32.7-4.1,65.4,8.1,98
		c4.1,12.2,0,32.7-4.1,44.9c-12.2,24.5-12.2,40.8-4.1,69.4c8.1,40.8,8.1,85.8,12.2,130.7c0,40.8,4.1,77.7,0,118.5
		c-8.1,53.1-12.2,102.1-8.1,155.3c8.1,61.3,8.1,126.6,8.1,187.9c0,12.2,4.1,24.5,8.1,36.8c20.5,40.8,4.1,77.7-20.5,110.4
		c24.5,4.1,36.8,24.5,49.1,44.9c-12.2,32.7-28.6,65.4-36.8,89.9c-32.7,12.2-53.1,20.5-81.6,28.6c-28.6-4.1-28.6-44.9-57.2-53.1
		c0-16.4,0-28.6,0-40.8c0-49.1,0-98-16.4-147.1c0-4.1,0-8.1,0-16.4c-4.1-73.5-4.1-151.2-12.2-224.7c-8.1-94-12.2-183.9-8.1-277.8
		c8.1-98,8.1-196.2,8.1-298.3c0-20.5,8.1-40.8,12.2-65.4c-20.5,0-32.7,0-49.1,0c-122.6,0-245.1,0-367.7,0c-28.6,0-53.1,4.1-85.8,8.1
		c0,16.4,0,32.7,0,44.9c0,85.8,8.1,171.5-4.1,253.3c-8.1,77.7-4.1,155.3-8.1,232.9c0,36.8,8.1,77.7,12.2,110.4
		c-8.1,12.2-16.4,20.5-20.5,28.6c4.1,65.4,4.1,130.7,8.1,192c4.1,32.7,20.5,65.4,28.6,98c-8.1,24.5-16.4,44.9-28.6,73.5
		c-12.2,8.1-36.8,16.4-53.1,24.5c-20.5,8.1-36.8,20.5-57.2,28.6c-28.6-20.5-40.8-53.1-44.9-89.9c-8.1-61.3-4.1-126.6-20.5-187.9
		c-4.1-12.2,0-24.5,0-40.8c0-147.1,0-298.3,0-445.4c0-77.7,8.1-159.3,12.2-237c0-16.4-4.1-32.7-4.1-53.1c0-49.1,0-94,0-143
		c0-12.2,4.1-28.6-4.1-36.8c-12.2-20.5-4.1-36.8,4.1-53.1c12.2-20.5,12.2-36.8,4.1-61.3c-4.1-12.2-4.1-28.6,4.1-36.8
		c20.5-16.4,4.1-44.9,28.6-57.2c-4.1-4.1-4.1-12.2-8.1-20.5c8.1-4.1,16.4-4.1,20.5-4.1c20.5-32.7,36.8-65.4,57.2-89.9
		c36.8-44.9,65.4-94,98-143c20.5-32.7,40.8-61.3,65.4-89.9C6365.4,161.5,6381.7,145.2,6414.4,157.4z M6737.2,659.9
		c4.1,0,4.1,4.1,8.1,4.1C6741.3,664.1,6741.3,659.9,6737.2,659.9c4.1-24.5-20.5-32.7-28.6-49.1c-16.4-32.7-32.7-69.4-57.2-102.1
		c-44.9-61.3-94-118.5-139-179.8c-8.1-8.1-16.4-16.4-28.6-28.6c-12.2,12.2-20.5,24.5-28.6,36.8c-32.7,32.7-65.4,61.3-94,94
		c-16.4,16.4-32.7,32.7-40.8,53.1c-8.1,16.4-16.4,28.6-28.6,44.9c-40.8,53.1-44.9,69.4-49.1,118.5c16.4,0,32.7-4.1,49.1-4.1
		c77.7,4.1,159.3-4.1,237,8.1C6598.4,664.1,6667.8,659.9,6737.2,659.9z M6136.6,537.3c-4.1,0-4.1,0-8.1,0c0,8.1,4.1,12.2,4.1,20.5
		h4.1C6136.6,549.7,6136.6,541.4,6136.6,537.3z M6324.6,725.4C6324.6,721.2,6320.4,721.2,6324.6,725.4c-4.1-4.1-4.1,0-4.1,0
		S6320.4,725.4,6324.6,725.4C6320.4,725.4,6324.6,725.4,6324.6,725.4z"/>
	<path d="M5172.4,1951.1c-4.1-24.5-8.1-40.8-8.1-61.3c0-16.4,4.1-32.7,4.1-44.9c0-32.7,0-69.4,0-102.1c0-81.6,0-159.3,0-241.1
		c0-57.2,8.1-110.4,16.4-167.6c8.1-49.1,8.1-102.1-4.1-151.2c-4.1-12.2-4.1-24.5-4.1-36.8c0-155.3,0-306.4,0-461.7
		c0-53.1,8.1-110.4,8.1-163.4c0-12.2,0-28.6-4.1-36.8c-24.5-44.9-16.4-94-8.1-143c4.1-12.2,4.1-20.5,4.1-32.7c0-32.7,0-61.3,0-94
		c16.4-16.4,28.6-36.8,49.1-40.8c12.2-16.4,20.5-32.7,32.7-49.1c24.5,4.1,49.1,12.2,73.5,16.4c20.5,24.5,28.6,49.1,12.2,81.6
		c-8.1,12.2-4.1,28.6,8.1,40.8c24.5,32.7,28.6,69.4,20.5,106.3c-4.1,24.5,0,53.1,0,77.7c0,73.5,0,143,0,220.6c24.5,0,49.1,0,69.4,0
		c16.4,0,36.8,4.1,53.1,8.1c8.1,0,12.2,4.1,20.5,0c32.7-12.2,65.4,8.1,98-8.1c20.5-8.1,49.1,0,77.7,0c20.5,8.1,32.7,44.9,65.4,20.5
		c-8.1-32.7,16.4-69.4,4.1-106.3c16.4-32.7,8.1-69.4,8.1-106.3c0-53.1,4.1-102.1,20.5-151.2c4.1-12.2,0-28.6,0-44.9
		c0-24.5,0-49.1,20.5-69.4c-8.1-8.1-16.4-16.4-24.5-28.6c4.1-12.2,12.2-20.5,16.4-32.7c28.6-4.1,53.1-4.1,81.6-8.1
		c20.5-4.1,16.4-36.8,49.1-32.7c20.5,20.5,24.5,49.1,24.5,77.7c0,32.7,4.1,65.4,0,98c0,36.8,0,73.5,0,106.3s0,69.4,0,102.1
		c0,24.5-8.1,44.9-4.1,69.4c4.1,24.5-4.1,53.1-4.1,77.7c0,24.5-4.1,49.1,0,73.5c20.5,89.9,12.2,183.9,8.1,273.8
		c-12.2,163.4-4.1,326.9-8.1,490.3c0,69.4,0,139,12.2,208.4c8.1,44.9,8.1,89.9,8.1,134.8c0,32.7,8.1,69.4-16.4,98
		c8.1,28.6-8.1,49.1-24.5,65.4c-28.6,4.1-53.1,8.1-81.6,16.4c-12.2-16.4-24.5-32.7-32.7-44.9c-24.5-147.1-4.1-286-16.4-429
		c-8.1-126.6-4.1-253.3-8.1-375.9c0-32.7-8.1-65.4-12.2-98c-8.1-8.1-16.4-12.2-28.6-24.5c24.5-20.5,44.9-36.8,49.1-69.4
		c8.1,4.1,16.4,4.1,20.5,8.1c0-4.1,4.1-8.1,4.1-8.1c-16.4-8.1-20.5-28.6-20.5-49.1c-44.9,4.1-89.9-12.2-130.7,16.4
		c-8.1,4.1-20.5,4.1-28.6,4.1c-44.9,0-89.9,4.1-130.7-8.1c-24.5-4.1-49.1,0-73.5,4.1c8.1,4.1,16.4,4.1,20.5,8.1
		c8.1,4.1,16.4,12.2,20.5,20.5c-12.2,12.2-61.3,16.4-89.9,8.1c-4.1,8.1-4.1,16.4-12.2,24.5c-4.1,4.1-8.1,8.1-20.5,20.5
		c16.4-4.1,24.5-4.1,36.8-8.1c-8.1,16.4-16.4,24.5-24.5,36.8c8.1,12.2,16.4,28.6,28.6,49.1c-12.2,0-20.5,0-32.7,0
		c-4.1,65.4-8.1,130.7-8.1,196.2c-4.1,94-8.1,183.9-12.2,277.8c8.1,12.2,16.4,20.5,20.5,28.6c0,24.5,8.1,49.1-12.2,61.3
		c0,16.4,4.1,24.5,4.1,36.8s-4.1,24.5,4.1,32.7c24.5,44.9,12.2,85.8,0,130.7c-4.1,24.5-4.1,53.1-4.1,77.7c0,24.5-4.1,44.9-20.5,61.3
		c-40.8,16.4-44.9-16.4-53.1-40.8c-20.5-8.1-32.7-8.1-49.1,4.1C5205.1,1971.5,5188.7,1967.4,5172.4,1951.1z M5205.1,1898
		C5201,1898,5201,1898,5205.1,1898C5201,1898,5205.1,1898,5205.1,1898L5205.1,1898z M5233.7,1910.2
		C5233.7,1910.2,5233.7,1906.1,5233.7,1910.2c-4.1-4.1-4.1,0-4.1,0H5233.7L5233.7,1910.2z M5858.7,1951.1L5858.7,1951.1
		L5858.7,1951.1L5858.7,1951.1z"/>
	<path d="M4293.9,186c16.4-24.5,36.8-16.4,57.2-16.4c0,8.1,4.1,16.4,4.1,24.5c4.1,0,4.1,0,8.1,0c20.5-12.2,36.8-16.4,61.3-12.2
		c122.6,0,249.2,0,371.8,0c49.1,0,98,8.1,151.2,8.1c12.2,0,28.6,8.1,32.7,16.4c28.6,32.7,57.2,65.4,81.6,102.1
		c12.2,16.4,8.1,28.6-8.1,49.1c-36.8,4.1-77.7,8.1-118.5,8.1c-69.4,0-139,0-212.5,0c-53.1,0-110.4,8.1-163.4,16.4
		c24.5,4.1,49.1,12.2,73.5,16.4c0,4.1,0,12.2,0,12.2c-12.2,8.1-24.5,12.2-32.7,20.5c-16.4,16.4-20.5,49.1-53.1,53.1
		c-4.1,0,8.1,12.2-4.1,16.4c-4.1,0,0,16.4,0,24.5c0,4.1-12.2,4.1-12.2,16.4c-8.1,53.1-20.5,106.3-12.2,163.4
		c-12.2,16.4-28.6,32.7-16.4,57.2c4.1,8.1-4.1,24.5-8.1,36.8c-4.1,8.1-4.1,16.4,0,28.6c4.1,16.4,0,32.7,0,44.9
		c0,24.5-4.1,49.1,0,73.5c4.1,36.8,12.2,77.7,16.4,114.4c0,4.1-8.1,12.2-8.1,16.4c-4.1,32.7-8.1,69.4-4.1,102.1
		c4.1,32.7,0,69.4,16.4,106.3c8.1,12.2,8.1,32.7,4.1,49.1c-12.2,44.9-12.2,89.9,0,134.8c0,4.1,0,8.1,0,16.4
		c4.1,69.4,4.1,102.1,12.2,171.5c4.1,40.8,0,85.8,12.2,130.7c16.4,0,28.6,0,44.9,0c98,0,196.2,0,294.2,0c32.7,0,69.4,4.1,102.1,12.2
		c12.2,4.1,24.5,16.4,36.8,24.5c-16.4,32.7-32.7,61.3-44.9,94c4.1,4.1,12.2,8.1,20.5,16.4c-4.1,8.1-8.1,20.5-12.2,32.7
		c-81.6,0-159.3,0-245.1,0c8.1,8.1,16.4,12.2,20.5,16.4c-8.1,32.7-36.8,16.4-53.1,24.5c-12.2,24.5-40.8,24.5-65.4,36.8
		c-28.6-8.1-57.2-12.2-89.9-12.2c-36.8,4.1-77.7-8.1-122.6-12.2c-4.1-8.1-16.4-24.5-28.6-40.8c-40.8,0-65.4-24.5-81.6-61.3
		c-4.1-8.1-8.1-16.4-8.1-20.5c0-44.9,0-89.9,0-130.7c16.4-20.5-4.1-49.1,8.1-73.5c8.1-20.5,4.1-49.1-8.1-69.4
		c-4.1-8.1,0-20.5,0-28.6c0-32.7,0-65.4-8.1-102.1c-20.5-98-28.6-159.3-20.5-257.5c12.2-134.8,8.1-269.7,4.1-404.5
		c0-81.6-8.1-163.4-8.1-241.1c0-20.5,8.1-44.9,4.1-65.4c-8.1-24.5,8.1-40.8,12.2-65.4c4.1-12.2,4.1-24.5,4.1-36.8
		C4293.9,333.1,4293.9,259.5,4293.9,186z"/>
	<path d="M2500.2,1836.7c-4.1-44.9,0-89.9,4.1-139c4.1-24.5-4.1-49.1-4.1-73.5c-24.5-20.5-24.5-20.5,0-40.8
		c-4.1-4.1-8.1-8.1-16.4-12.2c0-77.7,0-159.3,0-237c0-28.6,8.1-61.3,12.2-94c0,0,4.1-4.1,8.1-4.1c-4.1-65.4,8.1-130.7,16.4-192
		c-85.8-98-167.6-196.2-257.5-302.4c-16.4-4.1-32.7-12.2-44.9-36.8c-12.2-24.5-28.6-40.8-49.1-65.4c8.1-8.1,16.4-20.5,24.5-32.7
		c0,0,0-4.1,0-8.1c-12.2-20.5-20.5-44.9-8.1-69.4c-16.4-32.7,8.1-65.4,4.1-98c-4.1-32.7-4.1-69.4,0-102.1c4.1-49.1,8.1-98,8.1-151.2
		c8.1-12.2,16.4-24.5,24.5-36.8c12.2-4.1,24.5-4.1,36.8-8.1c24.5,8.1,44.9,20.5,65.4,20.5c28.6,0,49.1,12.2,69.4,28.6
		c8.1,32.7-24.5,28.6-36.8,49.1c24.5,40.8,20.5,81.6,12.2,126.6c-4.1,12.2-4.1,24.5-4.1,36.8c-4.1,36.8-12.2,73.5-16.4,110.4
		c-4.1,24.5-4.1,53.1-4.1,81.6c28.6,0,49.1,20.5,69.4,36.8c44.9,40.8,77.7,94,114.4,139c12.2,12.2,20.5,24.5,28.6,36.8
		c4.1,8.1,16.4,12.2,16.4,16.4c12.2,49.1,61.3,69.4,89.9,114.4c77.7-118.5,143-237,220.6-351.3c-12.2-8.1-20.5-16.4-28.6-24.5
		c4.1-49.1,0-94,4.1-143c8.1-57.2,24.5-114.4,8.1-171.5c12.2-20.5-20.5-24.5-12.2-44.9c16.4-28.6,40.8-40.8,69.4-40.8
		c44.9,0,89.9,0,139,0c16.4,20.5,36.8,44.9,53.1,65.4c-8.1,44.9-8.1,89.9-20.5,134.8c-12.2,53.1-8.1,102.1-8.1,155.3
		c0,28.6-20.5,49.1-28.6,73.5c12.2,8.1,36.8-4.1,44.9,20.5c-16.4,44.9-49.1,85.8-81.6,126.6c-36.8,49.1-73.5,98-114.4,143
		c-24.5,28.6-53.1,53.1-81.6,81.6c-8.1,8.1-16.4,16.4-20.5,24.5c-20.5,36.8-36.8,73.5-57.2,114.4c-8.1,16.4-16.4,32.7-16.4,49.1
		c0,53.1-28.6,106.3-4.1,163.4c4.1,8.1,4.1,16.4,0,24.5c-12.2,20.5-8.1,44.9-8.1,65.4c0,114.4,0,232.9,0,347.4
		c0,28.6,4.1,61.3,8.1,89.9c4.1,36.8-12.2,69.4-20.5,102.1c-4.1,12.2-16.4,24.5-36.8,20.5c-49.1,0-98,4.1-147.1,8.1
		c-8.1-16.4-12.2-24.5-20.5-40.8c-12.2,0-32.7,0-53.1-4.1c4.1-36.8-12.2-73.5,16.4-110.4C2488,1828.5,2496.1,1832.6,2500.2,1836.7
		c0,16.4,0,32.7,4.1,44.9C2508.3,1865.3,2520.6,1848.9,2500.2,1836.7z"/>
	<path d="M7554.4,1297.3c-8.1,8.1-12.2,16.4-20.5,24.5c0,44.9,0,89.9,0,134.8c8.1,4.1,16.4,8.1,24.5,8.1
		c4.1,20.5,8.1,40.8,12.2,65.4c-4.1,8.1-8.1,16.4-16.4,28.6c-8.1,0-12.2-4.1-24.5-8.1c4.1,32.7,8.1,61.3,12.2,89.9
		c4.1,32.7,12.2,69.4,16.4,102.1c0,4.1,0,12.2,0,16.4c20.5,40.8,0,69.4-20.5,102.1c8.1,16.4,12.2,32.7,20.5,49.1
		c-20.5,32.7-53.1,36.8-81.6,40.8c-20.5,4.1-32.7,12.2-44.9,20.5c-20.5,0-40.8-4.1-57.2-4.1c0,0,0-4.1,0-12.2
		c-12.2,4.1-24.5,4.1-40.8,8.1c-4.1-65.4-12.2-126.6-16.4-192c0-4.1-8.1-12.2-16.4-20.5c0-36.8,0-69.4,8.1-106.3
		c8.1-36.8,0-73.5,0-114.4c0-28.6,0-57.2,0-89.9c4.1-61.3,8.1-126.6,16.4-187.9c4.1-40.8,8.1-85.8-4.1-130.7c0-4.1,0-8.1-4.1-12.2
		c-4.1-49.1-8.1-98-8.1-155.3c-94-85.8-187.9-175.7-273.8-277.8c4.1-24.5,0-49.1,0-73.5c0-28.6,0-57.2,0-89.9
		c0-28.6,4.1-57.2,0-81.6c-4.1-28.6,0-61.3,0-89.9c0-28.6,0-57.2,0-89.9c0-28.6,8.1-57.2,20.5-81.6c44.9-12.2,89.9-20.5,134.8,0
		c24.5,40.8,12.2,89.9,16.4,134.8c-8.1,4.1-12.2,8.1-20.5,16.4c12.2,85.8,20.5,175.7,32.7,265.6c16.4,16.4,32.7,32.7,49.1,44.9
		c57.2,57.2,110.4,122.6,179.8,171.5c4.1,4.1,8.1,12.2,12.2,16.4c28.6,8.1,44.9-8.1,57.2-24.5c32.7-44.9,69.4-89.9,110.4-130.7
		c16.4-16.4,28.6-36.8,40.8-49.1c4.1-24.5,8.1-40.8,12.2-61.3c4.1-16.4,4.1-32.7,0-49.1c-16.4-69.4-20.5-139-20.5-212.5
		c0-12.2,0-24.5-4.1-32.7c-8.1-36.8-8.1-36.8,16.4-61.3c57.2-8.1,118.5-16.4,179.8-24.5c0,16.4,4.1,28.6,4.1,40.8
		c0,106.3,0,208.4,0,314.6c0,28.6-8.1,53.1-12.2,85.8c12.2,12.2,20.5,32.7,16.4,44.9c-44.9,57.2-81.6,106.3-118.5,155.3
		c-24.5,28.6-49.1,57.2-73.5,85.8c-28.6,32.7-61.3,65.4-89.9,102.1c-16.4,20.5-20.5,40.8-20.5,69.4
		C7554.4,1146.1,7554.4,1219.7,7554.4,1297.3z M7346,786.7c4.1,0,4.1,4.1,8.1,4.1C7350.1,790.7,7350.1,786.7,7346,786.7
		c-4.1-4.1-8.1-8.1-8.1-8.1c-4.1-4.1-8.1-8.1-8.1-8.1c-4.1-4.1-8.1-8.1-8.1-8.1c-4.1-4.1-8.1-8.1-8.1-8.1c-4.1,0-4.1-4.1-8.1-4.1
		c4.1,0,4.1,4.1,8.1,4.1c4.1,4.1,8.1,8.1,8.1,8.1c4.1,4.1,8.1,8.1,8.1,8.1c4.1,4.1,8.1,8.1,8.1,8.1S7342,782.5,7346,786.7z
		 M7072.3,651.8C7072.3,651.8,7072.3,655.8,7072.3,651.8c4.1,4.1,8.1,4.1,12.2,4.1v-4.1C7080.4,651.8,7076.3,651.8,7072.3,651.8z
		 M7529.9,1526.2L7529.9,1526.2c-4.1-4.1-4.1,0-4.1,0S7525.8,1530.3,7529.9,1526.2C7529.9,1530.3,7529.9,1526.2,7529.9,1526.2z
		 M7783.2,635.5C7783.2,635.5,7783.2,631.3,7783.2,635.5c-4.1-4.1-4.1,0-4.1,0H7783.2L7783.2,635.5z"/>
	<path d="M6855.7,255c-4.1-12.2-4.1-32.7,24.5-40.8c12.2,44.9,65.4,69.4,65.4,126.6C6912.9,312.2,6884.3,283.6,6855.7,255z"/>
	<path d="M5462.4,1011.4c-8.1,8.1-12.2,12.2-20.5,20.5c-12.2-4.1-24.5-8.1-36.8-16.4c8.1-36.8,32.7-20.5,57.2-24.5
		C5462.4,999,5462.4,1007.3,5462.4,1011.4L5462.4,1011.4z"/>
	<path d="M4927.2,528.7c4.1,8.1,12.2,16.4,20.5,28.6c-12.2,0-20.5,4.1-32.7,4.1c0-12.2,0-20.5,0-28.6
		C4919.1,528.7,4923,528.7,4927.2,528.7z"/>
	<path d="M4943.5,205.9c0,8.1,0,16.4,0,24.5c-12.2,0-20.5,0-32.7,0c8.1-12.2,16.4-20.5,24.5-28.6
		C4935.4,205.9,4939.4,205.9,4943.5,205.9z"/>
	<path d="M5715.8,1669.1c4.1-4.1,8.1-12.2,16.4-20.5c8.1,8.1,12.2,16.4,20.5,24.5c-12.2,0-20.5,4.1-28.6,4.1
		C5719.9,1677.4,5719.9,1673.3,5715.8,1669.1z"/>
	<path d="M7198.9,1550.7c4.1,4.1,12.2,8.1,20.5,12.2c-8.1,8.1-12.2,12.2-20.5,20.5c-4.1-12.2-8.1-20.5-8.1-28.6
		C7190.8,1554.8,7194.8,1550.7,7198.9,1550.7z"/>
	<path d="M4931.3,517c12.2,0,20.5,0,36.8-4.1c-8.1,12.2-12.2,20.5-16.4,28.6C4943.5,533.3,4939.4,525.1,4931.3,517z"/>
	<path d="M5442.1,1056.2c-8.1,0-16.4,4.1-28.6,4.1C5417.5,1035.9,5429.7,1040,5442.1,1056.2z"/>
	<path d="M5544.2,1027.6c8.1,0,16.4,0,28.6-4.1C5564.6,1048.1,5556.4,1044,5544.2,1027.6z"/>
	<path d="M5523.7,324.4c8.1,0,16.4,0,32.7,0C5544.2,344.9,5531.8,344.9,5523.7,324.4z"/>
	<path d="M5474.7,1064.5c-4.1,4.1-8.1,8.1-12.2,8.1s-8.1-4.1-8.1-8.1c0-4.1,4.1-8.1,8.1-8.1
		C5466.5,1052.2,5470.7,1056.2,5474.7,1064.5z"/>
	<path d="M3705.6,1391.3c4.1,4.1,8.1,8.1,8.1,12.2c0,4.1-4.1,8.1-8.1,8.1c-4.1,0-8.1-4.1-8.1-8.1
		C3697.3,1403.6,3701.5,1399.5,3705.6,1391.3z"/>
	<path d="M7096.8,1612c0,4.1,0,8.1,0,12.2h-4.1c0-4.1,0-8.1-4.1-12.2C7092.7,1616.1,7096.8,1616.1,7096.8,1612z"/>
	<path d="M3685.1,189.6c-4.1,0-8.1,0-12.2,0v-4.1c4.1,0,8.1,0,12.2-4.1C3685.1,189.6,3685.1,189.6,3685.1,189.6z"/>
	<path d="M6332.8,1448.5c0,4.1,0,8.1,0,12.2h-4.1c0-4.1,0-8.1-4.1-12.2C6328.7,1448.5,6332.8,1448.5,6332.8,1448.5z"/>
	<path d="M5462.4,1011.4c4.1,4.1,4.1,8.1,8.1,16.4c-4.1,0-4.1,0-8.1,4.1C5466.5,1023.6,5462.4,1019.5,5462.4,1011.4L5462.4,1011.4z"
		/>
</g>
</svg>
