<?xml version="1.0" encoding="utf-8"?>
<!-- Generator: Adobe Illustrator 18.0.0, SVG Export Plug-In . SVG Version: 6.00 Build 0)  -->
<!DOCTYPE svg PUBLIC "-//W3C//DTD SVG 1.1//EN" "http://www.w3.org/Graphics/SVG/1.1/DTD/svg11.dtd">
<svg version="1.1" id="Layer_1" xmlns="http://www.w3.org/2000/svg" xmlns:xlink="http://www.w3.org/1999/xlink" x="0px" y="0px"
	 viewBox="0 0 44.1 35.8" enable-background="new 0 0 44.1 35.8" xml:space="preserve">
<g id="Livello_x0020_1">
	<path fill="#FFFFFF" d="M44.1,4.2c-1.6,0.7-3.4,1.2-5.2,1.4c1.9-1.1,3.3-2.9,4-5c-1.8,1-3.7,1.8-5.7,2.2c-1.7-1.8-4-2.9-6.6-2.9
		c-5,0-9,4.1-9,9.1c0,0.7,0.1,1.4,0.2,2.1c-7.5-0.4-14.2-4-18.6-9.5C2.3,3,1.9,4.5,1.9,6.2c0,3.1,1.6,5.9,4,7.5
		c-1.5,0-2.9-0.5-4.1-1.1c0,0,0,0.1,0,0.1c0,4.4,3.1,8,7.3,8.9c-0.8,0.2-1.6,0.3-2.4,0.3c-0.6,0-1.2-0.1-1.7-0.2
		c1.2,3.6,4.5,6.2,8.5,6.3c-3.1,2.4-7,3.9-11.2,3.9c-0.7,0-1.4,0-2.2-0.1c4,2.6,8.8,4.1,13.9,4.1c16.6,0,25.7-13.8,25.7-25.7
		c0-0.4,0-0.8,0-1.2C41.4,7.6,42.9,6,44.1,4.2L44.1,4.2z"/>
</g>
</svg>
